<svg xmlns="http://www.w3.org/2000/svg" shape-rendering="crispEdges" viewBox="0 0 96 96"><path fill="#212121" d="M15 2h1v1h-1zM79 2h1v1h-1zM80 2h1v1h-1zM13 3h1v1h-1zM14 3h1v1h-1z"/><path fill="#4E6CEF" d="M15 3h1v1h-1z"/><path fill="#212121" d="M16 3h1v1h-1zM78 3h1v1h-1z"/><path fill="#333" d="M79 3h1v1h-1zM80 3h1v1h-1z"/><path fill="#212121" d="M81 3h1v1h-1zM82 3h1v1h-1zM10 4h1v1h-1zM11 4h1v1h-1zM12 4h1v1h-1z"/><path fill="#4E6CEF" d="M13 4h1v1h-1zM14 4h1v1h-1zM15 4h1v1h-1z"/><path fill="#212121" d="M16 4h1v1h-1zM78 4h1v1h-1z"/><path fill="#333" d="M79 4h1v1h-1zM80 4h1v1h-1zM81 4h1v1h-1zM82 4h1v1h-1z"/><path fill="#212121" d="M83 4h1v1h-1zM84 4h1v1h-1zM85 4h1v1h-1zM8 5h1v1H8zM9 5h1v1H9z"/><path fill="#4E6CEF" d="M10 5h1v1h-1zM11 5h1v1h-1zM12 5h1v1h-1zM13 5h1v1h-1zM14 5h1v1h-1z"/><path fill="#212121" d="M15 5h1v1h-1zM79 5h1v1h-1z"/><path fill="#333" d="M80 5h1v1h-1zM81 5h1v1h-1zM82 5h1v1h-1zM83 5h1v1h-1zM84 5h1v1h-1zM85 5h1v1h-1z"/><path fill="#212121" d="M86 5h1v1h-1zM87 5h1v1h-1zM7 6h1v1H7z"/><path fill="#4E6CEF" d="M8 6h1v1H8zM9 6h1v1H9zM10 6h1v1h-1zM11 6h1v1h-1zM12 6h1v1h-1zM13 6h1v1h-1z"/><path fill="#2A36B1" d="M14 6h1v1h-1z"/><path fill="#212121" d="M15 6h1v1h-1zM79 6h1v1h-1z"/><path fill="#333" d="M80 6h1v1h-1zM81 6h1v1h-1zM82 6h1v1h-1zM83 6h1v1h-1zM84 6h1v1h-1zM85 6h1v1h-1zM86 6h1v1h-1zM87 6h1v1h-1z"/><path fill="#212121" d="M88 6h1v1h-1zM6 7h1v1H6z"/><path fill="#4E6CEF" d="M7 7h1v1H7zM8 7h1v1H8zM9 7h1v1H9zM10 7h1v1h-1zM11 7h1v1h-1zM12 7h1v1h-1zM13 7h1v1h-1z"/><path fill="#2A36B1" d="M14 7h1v1h-1z"/><path fill="#212121" d="M15 7h1v1h-1zM41 7h1v1h-1zM42 7h1v1h-1zM43 7h1v1h-1zM44 7h1v1h-1zM45 7h1v1h-1zM46 7h1v1h-1zM79 7h1v1h-1z"/><path fill="#333" d="M80 7h1v1h-1zM81 7h1v1h-1zM82 7h1v1h-1zM83 7h1v1h-1zM84 7h1v1h-1zM85 7h1v1h-1zM86 7h1v1h-1zM87 7h1v1h-1zM88 7h1v1h-1z"/><path fill="#212121" d="M89 7h1v1h-1zM5 8h1v1H5z"/><path fill="#4E6CEF" d="M6 8h1v1H6zM7 8h1v1H7zM8 8h1v1H8zM9 8h1v1H9zM10 8h1v1h-1zM11 8h1v1h-1zM12 8h1v1h-1z"/><path fill="#2A36B1" d="M13 8h1v1h-1zM14 8h1v1h-1z"/><path fill="#212121" d="M15 8h1v1h-1zM40 8h1v1h-1z"/><path fill="#424242" d="M41 8h1v1h-1zM42 8h1v1h-1zM43 8h1v1h-1zM44 8h1v1h-1zM45 8h1v1h-1zM46 8h1v1h-1z"/><path fill="#212121" d="M47 8h1v1h-1zM79 8h1v1h-1z"/><path fill="#333" d="M80 8h1v1h-1zM81 8h1v1h-1zM82 8h1v1h-1zM83 8h1v1h-1zM84 8h1v1h-1zM85 8h1v1h-1zM86 8h1v1h-1zM87 8h1v1h-1zM88 8h1v1h-1zM89 8h1v1h-1z"/><path fill="#212121" d="M90 8h1v1h-1zM5 9h1v1H5z"/><path fill="#4E6CEF" d="M6 9h1v1H6zM7 9h1v1H7zM8 9h1v1H8z"/><path fill="#E0E0E0" d="M9 9h1v1H9z"/><path fill="#4E6CEF" d="M10 9h1v1h-1zM11 9h1v1h-1zM12 9h1v1h-1z"/><path fill="#2A36B1" d="M13 9h1v1h-1zM14 9h1v1h-1z"/><path fill="#212121" d="M15 9h1v1h-1zM39 9h1v1h-1z"/><path fill="#424242" d="M40 9h1v1h-1zM41 9h1v1h-1zM42 9h1v1h-1zM43 9h1v1h-1zM44 9h1v1h-1zM45 9h1v1h-1zM46 9h1v1h-1zM47 9h1v1h-1z"/><path fill="#212121" d="M48 9h1v1h-1zM79 9h1v1h-1z"/><path fill="#333" d="M80 9h1v1h-1zM81 9h1v1h-1zM82 9h1v1h-1zM83 9h1v1h-1zM84 9h1v1h-1zM85 9h1v1h-1zM86 9h1v1h-1zM87 9h1v1h-1zM88 9h1v1h-1zM89 9h1v1h-1z"/><path fill="#212121" d="M90 9h1v1h-1zM5 10h1v1H5z"/><path fill="#4E6CEF" d="M6 10h1v1H6zM7 10h1v1H7z"/><path fill="#212121" d="M8 10h1v1H8zM9 10h1v1H9zM10 10h1v1h-1z"/><path fill="#4E6CEF" d="M11 10h1v1h-1zM12 10h1v1h-1z"/><path fill="#2A36B1" d="M13 10h1v1h-1zM14 10h1v1h-1z"/><path fill="#212121" d="M15 10h1v1h-1zM39 10h1v1h-1z"/><path fill="#424242" d="M40 10h1v1h-1zM41 10h1v1h-1zM42 10h1v1h-1zM43 10h1v1h-1zM44 10h1v1h-1zM45 10h1v1h-1zM46 10h1v1h-1zM47 10h1v1h-1z"/><path fill="#212121" d="M48 10h1v1h-1zM79 10h1v1h-1z"/><path fill="#333" d="M80 10h1v1h-1zM81 10h1v1h-1zM82 10h1v1h-1zM83 10h1v1h-1zM84 10h1v1h-1z"/><path fill="#212121" d="M85 10h1v1h-1zM86 10h1v1h-1zM87 10h1v1h-1z"/><path fill="#333" d="M88 10h1v1h-1zM89 10h1v1h-1z"/><path fill="#212121" d="M90 10h1v1h-1zM4 11h1v1H4z"/><path fill="#424242" d="M5 11h1v1H5zM6 11h1v1H6z"/><path fill="#4E6CEF" d="M7 11h1v1H7zM8 11h1v1H8z"/><path fill="#212121" d="M9 11h1v1H9z"/><path fill="#E0E0E0" d="M10 11h1v1h-1zM11 11h1v1h-1z"/><path fill="#4E6CEF" d="M12 11h1v1h-1z"/><path fill="#2A36B1" d="M13 11h1v1h-1zM14 11h1v1h-1z"/><path fill="#212121" d="M15 11h1v1h-1zM39 11h1v1h-1z"/><path fill="#424242" d="M40 11h1v1h-1z"/><path fill="#D0D7E0" d="M41 11h1v1h-1z"/><path fill="#212121" d="M42 11h1v1h-1zM43 11h1v1h-1zM44 11h1v1h-1z"/><path fill="#424242" d="M45 11h1v1h-1zM46 11h1v1h-1zM47 11h1v1h-1zM48 11h1v1h-1z"/><path fill="#212121" d="M49 11h1v1h-1zM79 11h1v1h-1z"/><path fill="#333" d="M80 11h1v1h-1zM81 11h1v1h-1zM82 11h1v1h-1zM83 11h1v1h-1zM84 11h1v1h-1zM85 11h1v1h-1z"/><path fill="#212121" d="M86 11h1v1h-1z"/><path fill="#333" d="M87 11h1v1h-1zM88 11h1v1h-1z"/><path fill="#424242" d="M89 11h1v1h-1zM90 11h1v1h-1z"/><path fill="#212121" d="M91 11h1v1h-1zM3 12h1v1H3z"/><path fill="#424242" d="M4 12h1v1H4zM5 12h1v1H5zM6 12h1v1H6zM7 12h1v1H7z"/><path fill="#E0E0E0" d="M8 12h1v1H8z"/><path fill="#212121" d="M9 12h1v1H9z"/><path fill="#E0E0E0" d="M10 12h1v1h-1zM11 12h1v1h-1z"/><path fill="#4E6CEF" d="M12 12h1v1h-1z"/><path fill="#2A36B1" d="M13 12h1v1h-1zM14 12h1v1h-1zM15 12h1v1h-1z"/><path fill="#212121" d="M16 12h1v1h-1zM38 12h1v1h-1z"/><path fill="#98A1AC" d="M39 12h1v1h-1zM40 12h1v1h-1z"/><path fill="#D0D7E0" d="M41 12h1v1h-1zM42 12h1v1h-1z"/><path fill="#212121" d="M43 12h1v1h-1z"/><path fill="#D0D7E0" d="M44 12h1v1h-1zM45 12h1v1h-1z"/><path fill="#424242" d="M46 12h1v1h-1zM47 12h1v1h-1zM48 12h1v1h-1z"/><path fill="#212121" d="M49 12h1v1h-1zM78 12h1v1h-1z"/><path fill="#333" d="M79 12h1v1h-1zM80 12h1v1h-1zM81 12h1v1h-1zM82 12h1v1h-1zM83 12h1v1h-1zM84 12h1v1h-1zM85 12h1v1h-1z"/><path fill="#212121" d="M86 12h1v1h-1z"/><path fill="#333" d="M87 12h1v1h-1z"/><path fill="#424242" d="M88 12h1v1h-1zM89 12h1v1h-1zM90 12h1v1h-1zM91 12h1v1h-1z"/><path fill="#212121" d="M92 12h1v1h-1zM3 13h1v1H3zM4 13h1v1H4zM5 13h1v1H5z"/><path fill="#424242" d="M6 13h1v1H6zM7 13h1v1H7z"/><path fill="#E0E0E0" d="M8 13h1v1H8z"/><path fill="#4E6CEF" d="M9 13h1v1H9zM10 13h1v1h-1zM11 13h1v1h-1zM12 13h1v1h-1zM13 13h1v1h-1zM14 13h1v1h-1z"/><path fill="#2A36B1" d="M15 13h1v1h-1zM16 13h1v1h-1z"/><path fill="#212121" d="M17 13h1v1h-1zM37 13h1v1h-1z"/><path fill="#98A1AC" d="M38 13h1v1h-1zM39 13h1v1h-1zM40 13h1v1h-1zM41 13h1v1h-1z"/><path fill="#D0D7E0" d="M42 13h1v1h-1z"/><path fill="#212121" d="M43 13h1v1h-1z"/><path fill="#D0D7E0" d="M44 13h1v1h-1zM45 13h1v1h-1zM46 13h1v1h-1z"/><path fill="#424242" d="M47 13h1v1h-1zM48 13h1v1h-1zM49 13h1v1h-1z"/><path fill="#212121" d="M50 13h1v1h-1zM77 13h1v1h-1z"/><path fill="#333" d="M78 13h1v1h-1zM79 13h1v1h-1zM80 13h1v1h-1zM81 13h1v1h-1zM82 13h1v1h-1zM83 13h1v1h-1zM84 13h1v1h-1zM85 13h1v1h-1zM86 13h1v1h-1zM87 13h1v1h-1z"/><path fill="#424242" d="M88 13h1v1h-1zM89 13h1v1h-1z"/><path fill="#212121" d="M90 13h1v1h-1zM91 13h1v1h-1zM92 13h1v1h-1zM5 14h1v1H5z"/><path fill="#BDBDBD" d="M6 14h1v1H6zM7 14h1v1H7z"/><path fill="#E0E0E0" d="M8 14h1v1H8z"/><path fill="#4E6CEF" d="M9 14h1v1H9zM10 14h1v1h-1zM11 14h1v1h-1zM12 14h1v1h-1zM13 14h1v1h-1zM14 14h1v1h-1zM15 14h1v1h-1zM16 14h1v1h-1z"/><path fill="#2A36B1" d="M17 14h1v1h-1z"/><path fill="#212121" d="M18 14h1v1h-1zM37 14h1v1h-1zM38 14h1v1h-1zM39 14h1v1h-1z"/><path fill="#98A1AC" d="M40 14h1v1h-1zM41 14h1v1h-1z"/><path fill="#D0D7E0" d="M42 14h1v1h-1zM43 14h1v1h-1zM44 14h1v1h-1zM45 14h1v1h-1zM46 14h1v1h-1z"/><path fill="#424242" d="M47 14h1v1h-1zM48 14h1v1h-1zM49 14h1v1h-1zM50 14h1v1h-1z"/><path fill="#212121" d="M51 14h1v1h-1zM76 14h1v1h-1z"/><path fill="#333" d="M77 14h1v1h-1zM78 14h1v1h-1zM79 14h1v1h-1zM80 14h1v1h-1zM81 14h1v1h-1zM82 14h1v1h-1zM83 14h1v1h-1zM84 14h1v1h-1zM85 14h1v1h-1zM86 14h1v1h-1zM87 14h1v1h-1zM88 14h1v1h-1zM89 14h1v1h-1z"/><path fill="#212121" d="M90 14h1v1h-1zM5 15h1v1H5z"/><path fill="#BDBDBD" d="M6 15h1v1H6z"/><path fill="#E0E0E0" d="M7 15h1v1H7zM8 15h1v1H8zM9 15h1v1H9z"/><path fill="#4E6CEF" d="M10 15h1v1h-1zM11 15h1v1h-1zM12 15h1v1h-1zM13 15h1v1h-1zM14 15h1v1h-1zM15 15h1v1h-1zM16 15h1v1h-1zM17 15h1v1h-1zM18 15h1v1h-1z"/><path fill="#212121" d="M19 15h1v1h-1zM39 15h1v1h-1z"/><path fill="#BDBDBD" d="M40 15h1v1h-1z"/><path fill="#D0D7E0" d="M41 15h1v1h-1zM42 15h1v1h-1zM43 15h1v1h-1zM44 15h1v1h-1zM45 15h1v1h-1zM46 15h1v1h-1z"/><path fill="#424242" d="M47 15h1v1h-1zM48 15h1v1h-1zM49 15h1v1h-1zM50 15h1v1h-1zM51 15h1v1h-1z"/><path fill="#212121" d="M52 15h1v1h-1zM75 15h1v1h-1z"/><path fill="#333" d="M76 15h1v1h-1zM77 15h1v1h-1zM78 15h1v1h-1zM79 15h1v1h-1zM80 15h1v1h-1zM81 15h1v1h-1zM82 15h1v1h-1zM83 15h1v1h-1zM84 15h1v1h-1zM85 15h1v1h-1zM86 15h1v1h-1z"/><path fill="#1962E0" d="M87 15h1v1h-1z"/><path fill="#1E50A7" d="M88 15h1v1h-1zM89 15h1v1h-1z"/><path fill="#212121" d="M90 15h1v1h-1zM5 16h1v1H5z"/><path fill="#E0E0E0" d="M6 16h1v1H6zM7 16h1v1H7zM8 16h1v1H8zM9 16h1v1H9z"/><path fill="#4E6CEF" d="M10 16h1v1h-1zM11 16h1v1h-1zM12 16h1v1h-1zM13 16h1v1h-1zM14 16h1v1h-1zM15 16h1v1h-1zM16 16h1v1h-1zM17 16h1v1h-1z"/><path fill="#E0E0E0" d="M18 16h1v1h-1z"/><path fill="#4E6CEF" d="M19 16h1v1h-1z"/><path fill="#212121" d="M20 16h1v1h-1zM39 16h1v1h-1z"/><path fill="#D0D7E0" d="M40 16h1v1h-1zM41 16h1v1h-1zM42 16h1v1h-1zM43 16h1v1h-1zM44 16h1v1h-1zM45 16h1v1h-1z"/><path fill="#424242" d="M46 16h1v1h-1zM47 16h1v1h-1zM48 16h1v1h-1zM49 16h1v1h-1zM50 16h1v1h-1zM51 16h1v1h-1z"/><path fill="#6C7682" d="M52 16h1v1h-1z"/><path fill="#212121" d="M53 16h1v1h-1zM74 16h1v1h-1z"/><path fill="#333" d="M75 16h1v1h-1zM76 16h1v1h-1zM77 16h1v1h-1zM78 16h1v1h-1zM79 16h1v1h-1zM80 16h1v1h-1zM81 16h1v1h-1zM82 16h1v1h-1zM83 16h1v1h-1zM84 16h1v1h-1zM85 16h1v1h-1z"/><path fill="#1962E0" d="M86 16h1v1h-1zM87 16h1v1h-1zM88 16h1v1h-1zM89 16h1v1h-1z"/><path fill="#212121" d="M90 16h1v1h-1zM5 17h1v1H5z"/><path fill="#E0E0E0" d="M6 17h1v1H6zM7 17h1v1H7zM8 17h1v1H8zM9 17h1v1H9zM10 17h1v1h-1zM11 17h1v1h-1z"/><path fill="#4E6CEF" d="M12 17h1v1h-1z"/><path fill="#212121" d="M13 17h1v1h-1z"/><path fill="#4E6CEF" d="M14 17h1v1h-1zM15 17h1v1h-1z"/><path fill="#E0E0E0" d="M16 17h1v1h-1zM17 17h1v1h-1z"/><path fill="#BDBDBD" d="M18 17h1v1h-1z"/><path fill="#4E6CEF" d="M19 17h1v1h-1zM20 17h1v1h-1z"/><path fill="#212121" d="M21 17h1v1h-1zM39 17h1v1h-1z"/><path fill="#D0D7E0" d="M40 17h1v1h-1zM41 17h1v1h-1zM42 17h1v1h-1zM43 17h1v1h-1zM44 17h1v1h-1zM45 17h1v1h-1z"/><path fill="#212121" d="M46 17h1v1h-1z"/><path fill="#6C7682" d="M47 17h1v1h-1zM48 17h1v1h-1z"/><path fill="#424242" d="M49 17h1v1h-1z"/><path fill="#6C7682" d="M50 17h1v1h-1zM51 17h1v1h-1z"/><path fill="#424242" d="M52 17h1v1h-1zM53 17h1v1h-1z"/><path fill="#212121" d="M54 17h1v1h-1zM73 17h1v1h-1z"/><path fill="#1962E0" d="M74 17h1v1h-1zM75 17h1v1h-1zM76 17h1v1h-1z"/><path fill="#333" d="M77 17h1v1h-1zM78 17h1v1h-1zM79 17h1v1h-1zM80 17h1v1h-1zM81 17h1v1h-1z"/><path fill="#212121" d="M82 17h1v1h-1z"/><path fill="#333" d="M83 17h1v1h-1z"/><path fill="#1962E0" d="M84 17h1v1h-1zM85 17h1v1h-1zM86 17h1v1h-1zM87 17h1v1h-1zM88 17h1v1h-1zM89 17h1v1h-1z"/><path fill="#212121" d="M90 17h1v1h-1zM5 18h1v1H5z"/><path fill="#E0E0E0" d="M6 18h1v1H6z"/><path fill="#BDBDBD" d="M7 18h1v1H7z"/><path fill="#E0E0E0" d="M8 18h1v1H8zM9 18h1v1H9zM10 18h1v1h-1zM11 18h1v1h-1z"/><path fill="#4E6CEF" d="M12 18h1v1h-1z"/><path fill="#212121" d="M13 18h1v1h-1z"/><path fill="#4E6CEF" d="M14 18h1v1h-1z"/><path fill="#E0E0E0" d="M15 18h1v1h-1zM16 18h1v1h-1z"/><path fill="#BDBDBD" d="M17 18h1v1h-1zM18 18h1v1h-1z"/><path fill="#4E6CEF" d="M19 18h1v1h-1z"/><path fill="#212121" d="M20 18h1v1h-1z"/><path fill="#4E6CEF" d="M21 18h1v1h-1z"/><path fill="#212121" d="M22 18h1v1h-1zM39 18h1v1h-1z"/><path fill="#BDBDBD" d="M40 18h1v1h-1z"/><path fill="#D0D7E0" d="M41 18h1v1h-1zM42 18h1v1h-1zM43 18h1v1h-1zM44 18h1v1h-1zM45 18h1v1h-1z"/><path fill="#212121" d="M46 18h1v1h-1z"/><path fill="#424242" d="M47 18h1v1h-1zM48 18h1v1h-1z"/><path fill="#6C7682" d="M49 18h1v1h-1z"/><path fill="#424242" d="M50 18h1v1h-1zM51 18h1v1h-1zM52 18h1v1h-1zM53 18h1v1h-1zM54 18h1v1h-1z"/><path fill="#212121" d="M55 18h1v1h-1zM72 18h1v1h-1z"/><path fill="#1E50A7" d="M73 18h1v1h-1z"/><path fill="#212121" d="M74 18h1v1h-1z"/><path fill="#1962E0" d="M75 18h1v1h-1z"/><path fill="#1E50A7" d="M76 18h1v1h-1z"/><path fill="#1962E0" d="M77 18h1v1h-1z"/><path fill="#1E50A7" d="M78 18h1v1h-1zM79 18h1v1h-1zM80 18h1v1h-1z"/><path fill="#333" d="M81 18h1v1h-1z"/><path fill="#212121" d="M82 18h1v1h-1z"/><path fill="#1962E0" d="M83 18h1v1h-1zM84 18h1v1h-1zM85 18h1v1h-1zM86 18h1v1h-1z"/><path fill="#1E50A7" d="M87 18h1v1h-1z"/><path fill="#1962E0" d="M88 18h1v1h-1z"/><path fill="#1E50A7" d="M89 18h1v1h-1z"/><path fill="#212121" d="M90 18h1v1h-1zM5 19h1v1H5z"/><path fill="#BDBDBD" d="M6 19h1v1H6zM7 19h1v1H7zM8 19h1v1H8z"/><path fill="#E0E0E0" d="M9 19h1v1H9zM10 19h1v1h-1zM11 19h1v1h-1z"/><path fill="#4E6CEF" d="M12 19h1v1h-1zM13 19h1v1h-1z"/><path fill="#212121" d="M14 19h1v1h-1z"/><path fill="#4E6CEF" d="M15 19h1v1h-1z"/><path fill="#BDBDBD" d="M16 19h1v1h-1zM17 19h1v1h-1z"/><path fill="#4E6CEF" d="M18 19h1v1h-1zM19 19h1v1h-1z"/><path fill="#E0E0E0" d="M20 19h1v1h-1z"/><path fill="#212121" d="M21 19h1v1h-1z"/><path fill="#4E6CEF" d="M22 19h1v1h-1z"/><path fill="#212121" d="M23 19h1v1h-1zM39 19h1v1h-1z"/><path fill="#BDBDBD" d="M40 19h1v1h-1zM41 19h1v1h-1z"/><path fill="#D0D7E0" d="M42 19h1v1h-1zM43 19h1v1h-1zM44 19h1v1h-1zM45 19h1v1h-1zM46 19h1v1h-1z"/><path fill="#212121" d="M47 19h1v1h-1z"/><path fill="#424242" d="M48 19h1v1h-1zM49 19h1v1h-1zM50 19h1v1h-1zM51 19h1v1h-1zM52 19h1v1h-1z"/><path fill="#6C7682" d="M53 19h1v1h-1zM54 19h1v1h-1z"/><path fill="#212121" d="M55 19h1v1h-1zM71 19h1v1h-1z"/><path fill="#1E50A7" d="M72 19h1v1h-1z"/><path fill="#212121" d="M73 19h1v1h-1z"/><path fill="#1962E0" d="M74 19h1v1h-1zM75 19h1v1h-1zM76 19h1v1h-1z"/><path fill="#1E50A7" d="M77 19h1v1h-1zM78 19h1v1h-1zM79 19h1v1h-1zM80 19h1v1h-1z"/><path fill="#212121" d="M81 19h1v1h-1z"/><path fill="#1962E0" d="M82 19h1v1h-1zM83 19h1v1h-1zM84 19h1v1h-1zM85 19h1v1h-1z"/><path fill="#1E50A7" d="M86 19h1v1h-1z"/><path fill="#1962E0" d="M87 19h1v1h-1z"/><path fill="#1E50A7" d="M88 19h1v1h-1zM89 19h1v1h-1z"/><path fill="#212121" d="M90 19h1v1h-1zM5 20h1v1H5z"/><path fill="#BDBDBD" d="M6 20h1v1H6zM7 20h1v1H7z"/><path fill="#E0E0E0" d="M8 20h1v1H8z"/><path fill="#BDBDBD" d="M9 20h1v1H9z"/><path fill="#E0E0E0" d="M10 20h1v1h-1zM11 20h1v1h-1z"/><path fill="#4E6CEF" d="M12 20h1v1h-1zM13 20h1v1h-1zM14 20h1v1h-1z"/><path fill="#212121" d="M15 20h1v1h-1z"/><path fill="#E0E0E0" d="M16 20h1v1h-1zM17 20h1v1h-1zM18 20h1v1h-1zM19 20h1v1h-1zM20 20h1v1h-1z"/><path fill="#212121" d="M21 20h1v1h-1zM22 20h1v1h-1z"/><path fill="#4E6CEF" d="M23 20h1v1h-1z"/><path fill="#212121" d="M24 20h1v1h-1zM39 20h1v1h-1z"/><path fill="#BDBDBD" d="M40 20h1v1h-1z"/><path fill="#D0D7E0" d="M41 20h1v1h-1z"/><path fill="#BDBDBD" d="M42 20h1v1h-1zM43 20h1v1h-1z"/><path fill="#D0D7E0" d="M44 20h1v1h-1zM45 20h1v1h-1zM46 20h1v1h-1zM47 20h1v1h-1z"/><path fill="#212121" d="M48 20h1v1h-1z"/><path fill="#424242" d="M49 20h1v1h-1z"/><path fill="#6C7682" d="M50 20h1v1h-1zM51 20h1v1h-1zM52 20h1v1h-1z"/><path fill="#424242" d="M53 20h1v1h-1zM54 20h1v1h-1zM55 20h1v1h-1z"/><path fill="#212121" d="M56 20h1v1h-1zM70 20h1v1h-1z"/><path fill="#1962E0" d="M71 20h1v1h-1z"/><path fill="#212121" d="M72 20h1v1h-1zM73 20h1v1h-1z"/><path fill="#1962E0" d="M74 20h1v1h-1zM75 20h1v1h-1zM76 20h1v1h-1zM77 20h1v1h-1zM78 20h1v1h-1z"/><path fill="#212121" d="M79 20h1v1h-1zM80 20h1v1h-1z"/><path fill="#1962E0" d="M81 20h1v1h-1zM82 20h1v1h-1zM83 20h1v1h-1zM84 20h1v1h-1z"/><path fill="#1E50A7" d="M85 20h1v1h-1z"/><path fill="#1962E0" d="M86 20h1v1h-1z"/><path fill="#1E50A7" d="M87 20h1v1h-1zM88 20h1v1h-1zM89 20h1v1h-1z"/><path fill="#212121" d="M90 20h1v1h-1zM6 21h1v1H6z"/><path fill="#BDBDBD" d="M7 21h1v1H7zM8 21h1v1H8zM9 21h1v1H9zM10 21h1v1h-1z"/><path fill="#E0E0E0" d="M11 21h1v1h-1zM12 21h1v1h-1z"/><path fill="#4E6CEF" d="M13 21h1v1h-1zM14 21h1v1h-1zM15 21h1v1h-1z"/><path fill="#212121" d="M16 21h1v1h-1zM17 21h1v1h-1zM18 21h1v1h-1zM19 21h1v1h-1zM20 21h1v1h-1zM21 21h1v1h-1zM22 21h1v1h-1z"/><path fill="#4E6CEF" d="M23 21h1v1h-1zM24 21h1v1h-1z"/><path fill="#212121" d="M25 21h1v1h-1zM40 21h1v1h-1z"/><path fill="#BDBDBD" d="M41 21h1v1h-1zM42 21h1v1h-1z"/><path fill="#D0D7E0" d="M43 21h1v1h-1z"/><path fill="#BDBDBD" d="M44 21h1v1h-1z"/><path fill="#D0D7E0" d="M45 21h1v1h-1zM46 21h1v1h-1zM47 21h1v1h-1zM48 21h1v1h-1z"/><path fill="#212121" d="M49 21h1v1h-1zM50 21h1v1h-1zM51 21h1v1h-1zM52 21h1v1h-1z"/><path fill="#424242" d="M53 21h1v1h-1zM54 21h1v1h-1z"/><path fill="#6C7682" d="M55 21h1v1h-1z"/><path fill="#212121" d="M56 21h1v1h-1zM69 21h1v1h-1z"/><path fill="#1962E0" d="M70 21h1v1h-1zM71 21h1v1h-1z"/><path fill="#212121" d="M72 21h1v1h-1zM73 21h1v1h-1zM74 21h1v1h-1zM75 21h1v1h-1zM76 21h1v1h-1zM77 21h1v1h-1zM78 21h1v1h-1z"/><path fill="#1962E0" d="M79 21h1v1h-1zM80 21h1v1h-1zM81 21h1v1h-1zM82 21h1v1h-1zM83 21h1v1h-1zM84 21h1v1h-1zM85 21h1v1h-1z"/><path fill="#1E50A7" d="M86 21h1v1h-1z"/><path fill="#1962E0" d="M87 21h1v1h-1z"/><path fill="#1E50A7" d="M88 21h1v1h-1z"/><path fill="#212121" d="M89 21h1v1h-1zM7 22h1v1H7z"/><path fill="#BDBDBD" d="M8 22h1v1H8zM9 22h1v1H9z"/><path fill="#E0E0E0" d="M10 22h1v1h-1z"/><path fill="#BDBDBD" d="M11 22h1v1h-1z"/><path fill="#E0E0E0" d="M12 22h1v1h-1zM13 22h1v1h-1z"/><path fill="#4E6CEF" d="M14 22h1v1h-1zM15 22h1v1h-1zM16 22h1v1h-1z"/><path fill="#2A36B1" d="M17 22h1v1h-1zM18 22h1v1h-1zM19 22h1v1h-1zM20 22h1v1h-1zM21 22h1v1h-1z"/><path fill="#4E6CEF" d="M22 22h1v1h-1zM23 22h1v1h-1zM24 22h1v1h-1z"/><path fill="#2A36B1" d="M25 22h1v1h-1z"/><path fill="#212121" d="M26 22h1v1h-1zM40 22h1v1h-1z"/><path fill="#BDBDBD" d="M41 22h1v1h-1zM42 22h1v1h-1zM43 22h1v1h-1z"/><path fill="#D0D7E0" d="M44 22h1v1h-1z"/><path fill="#BDBDBD" d="M45 22h1v1h-1z"/><path fill="#D0D7E0" d="M46 22h1v1h-1zM47 22h1v1h-1zM48 22h1v1h-1zM49 22h1v1h-1zM50 22h1v1h-1zM51 22h1v1h-1z"/><path fill="#424242" d="M52 22h1v1h-1zM53 22h1v1h-1zM54 22h1v1h-1zM55 22h1v1h-1z"/><path fill="#6C7682" d="M56 22h1v1h-1z"/><path fill="#212121" d="M57 22h1v1h-1zM68 22h1v1h-1z"/><path fill="#1962E0" d="M69 22h1v1h-1zM70 22h1v1h-1zM71 22h1v1h-1zM72 22h1v1h-1z"/><path fill="#1E50A7" d="M73 22h1v1h-1z"/><path fill="#1962E0" d="M74 22h1v1h-1zM75 22h1v1h-1zM76 22h1v1h-1zM77 22h1v1h-1zM78 22h1v1h-1zM79 22h1v1h-1zM80 22h1v1h-1zM81 22h1v1h-1zM82 22h1v1h-1z"/><path fill="#1E50A7" d="M83 22h1v1h-1z"/><path fill="#1962E0" d="M84 22h1v1h-1z"/><path fill="#1E50A7" d="M85 22h1v1h-1zM86 22h1v1h-1zM87 22h1v1h-1z"/><path fill="#212121" d="M88 22h1v1h-1zM8 23h1v1H8z"/><path fill="#BDBDBD" d="M9 23h1v1H9zM10 23h1v1h-1zM11 23h1v1h-1zM12 23h1v1h-1z"/><path fill="#E0E0E0" d="M13 23h1v1h-1zM14 23h1v1h-1z"/><path fill="#4E6CEF" d="M15 23h1v1h-1zM16 23h1v1h-1zM17 23h1v1h-1z"/><path fill="#2A36B1" d="M18 23h1v1h-1zM19 23h1v1h-1zM20 23h1v1h-1zM21 23h1v1h-1zM22 23h1v1h-1zM23 23h1v1h-1zM24 23h1v1h-1zM25 23h1v1h-1z"/><path fill="#212121" d="M26 23h1v1h-1zM41 23h1v1h-1z"/><path fill="#BDBDBD" d="M42 23h1v1h-1zM43 23h1v1h-1zM44 23h1v1h-1zM45 23h1v1h-1z"/><path fill="#D0D7E0" d="M46 23h1v1h-1zM47 23h1v1h-1zM48 23h1v1h-1zM49 23h1v1h-1zM50 23h1v1h-1zM51 23h1v1h-1z"/><path fill="#6C7682" d="M52 23h1v1h-1z"/><path fill="#424242" d="M53 23h1v1h-1zM54 23h1v1h-1zM55 23h1v1h-1zM56 23h1v1h-1z"/><path fill="#212121" d="M57 23h1v1h-1zM68 23h1v1h-1z"/><path fill="#1962E0" d="M69 23h1v1h-1zM70 23h1v1h-1zM71 23h1v1h-1z"/><path fill="#1E50A7" d="M72 23h1v1h-1zM73 23h1v1h-1zM74 23h1v1h-1z"/><path fill="#1962E0" d="M75 23h1v1h-1zM76 23h1v1h-1zM77 23h1v1h-1zM78 23h1v1h-1zM79 23h1v1h-1zM80 23h1v1h-1zM81 23h1v1h-1zM82 23h1v1h-1zM83 23h1v1h-1z"/><path fill="#1E50A7" d="M84 23h1v1h-1z"/><path fill="#1962E0" d="M85 23h1v1h-1z"/><path fill="#1E50A7" d="M86 23h1v1h-1z"/><path fill="#212121" d="M87 23h1v1h-1zM9 24h1v1H9z"/><path fill="#BDBDBD" d="M10 24h1v1h-1zM11 24h1v1h-1z"/><path fill="#E0E0E0" d="M12 24h1v1h-1z"/><path fill="#BDBDBD" d="M13 24h1v1h-1z"/><path fill="#E0E0E0" d="M14 24h1v1h-1zM15 24h1v1h-1zM16 24h1v1h-1z"/><path fill="#2A36B1" d="M17 24h1v1h-1zM18 24h1v1h-1zM19 24h1v1h-1zM20 24h1v1h-1zM21 24h1v1h-1zM22 24h1v1h-1zM23 24h1v1h-1zM24 24h1v1h-1zM25 24h1v1h-1zM26 24h1v1h-1z"/><path fill="#212121" d="M27 24h1v1h-1zM42 24h1v1h-1z"/><path fill="#BDBDBD" d="M43 24h1v1h-1zM44 24h1v1h-1zM45 24h1v1h-1zM46 24h1v1h-1zM47 24h1v1h-1zM48 24h1v1h-1z"/><path fill="#D0D7E0" d="M49 24h1v1h-1zM50 24h1v1h-1zM51 24h1v1h-1zM52 24h1v1h-1z"/><path fill="#6C7682" d="M53 24h1v1h-1zM54 24h1v1h-1z"/><path fill="#424242" d="M55 24h1v1h-1zM56 24h1v1h-1zM57 24h1v1h-1z"/><path fill="#212121" d="M58 24h1v1h-1zM67 24h1v1h-1z"/><path fill="#1962E0" d="M68 24h1v1h-1zM69 24h1v1h-1zM70 24h1v1h-1z"/><path fill="#1E50A7" d="M71 24h1v1h-1zM72 24h1v1h-1zM73 24h1v1h-1z"/><path fill="#1962E0" d="M74 24h1v1h-1zM75 24h1v1h-1zM76 24h1v1h-1zM77 24h1v1h-1zM78 24h1v1h-1zM79 24h1v1h-1zM80 24h1v1h-1zM81 24h1v1h-1zM82 24h1v1h-1z"/><path fill="#1E50A7" d="M83 24h1v1h-1zM84 24h1v1h-1zM85 24h1v1h-1z"/><path fill="#212121" d="M86 24h1v1h-1zM10 25h1v1h-1z"/><path fill="#BDBDBD" d="M11 25h1v1h-1zM12 25h1v1h-1zM13 25h1v1h-1zM14 25h1v1h-1zM15 25h1v1h-1zM16 25h1v1h-1z"/><path fill="#212121" d="M17 25h1v1h-1zM18 25h1v1h-1z"/><path fill="#2A36B1" d="M19 25h1v1h-1zM20 25h1v1h-1zM21 25h1v1h-1z"/><path fill="#212121" d="M22 25h1v1h-1zM23 25h1v1h-1z"/><path fill="#2A36B1" d="M24 25h1v1h-1z"/><path fill="#E0E0E0" d="M25 25h1v1h-1zM26 25h1v1h-1z"/><path fill="#212121" d="M27 25h1v1h-1zM43 25h1v1h-1z"/><path fill="#BDBDBD" d="M44 25h1v1h-1zM45 25h1v1h-1zM46 25h1v1h-1zM47 25h1v1h-1zM48 25h1v1h-1zM49 25h1v1h-1zM50 25h1v1h-1zM51 25h1v1h-1z"/><path fill="#212121" d="M52 25h1v1h-1zM53 25h1v1h-1z"/><path fill="#6C7682" d="M54 25h1v1h-1zM55 25h1v1h-1zM56 25h1v1h-1zM57 25h1v1h-1z"/><path fill="#424242" d="M58 25h1v1h-1z"/><path fill="#212121" d="M59 25h1v1h-1zM67 25h1v1h-1z"/><path fill="#1E50A7" d="M68 25h1v1h-1zM69 25h1v1h-1z"/><path fill="#1962E0" d="M70 25h1v1h-1z"/><path fill="#212121" d="M71 25h1v1h-1zM72 25h1v1h-1z"/><path fill="#1E50A7" d="M73 25h1v1h-1zM74 25h1v1h-1zM75 25h1v1h-1zM76 25h1v1h-1z"/><path fill="#212121" d="M77 25h1v1h-1z"/><path fill="#1962E0" d="M78 25h1v1h-1z"/><path fill="#1E50A7" d="M79 25h1v1h-1zM80 25h1v1h-1zM81 25h1v1h-1zM82 25h1v1h-1zM83 25h1v1h-1zM84 25h1v1h-1z"/><path fill="#212121" d="M85 25h1v1h-1zM11 26h1v1h-1zM12 26h1v1h-1zM13 26h1v1h-1zM14 26h1v1h-1zM15 26h1v1h-1zM16 26h1v1h-1zM17 26h1v1h-1zM18 26h1v1h-1zM19 26h1v1h-1zM20 26h1v1h-1zM21 26h1v1h-1zM24 26h1v1h-1zM25 26h1v1h-1z"/><path fill="#E0E0E0" d="M26 26h1v1h-1z"/><path fill="#212121" d="M27 26h1v1h-1zM44 26h1v1h-1zM45 26h1v1h-1zM46 26h1v1h-1zM47 26h1v1h-1zM48 26h1v1h-1zM49 26h1v1h-1zM50 26h1v1h-1zM51 26h1v1h-1zM54 26h1v1h-1zM55 26h1v1h-1zM56 26h1v1h-1zM57 26h1v1h-1zM58 26h1v1h-1zM67 26h1v1h-1z"/><path fill="#1E50A7" d="M68 26h1v1h-1z"/><path fill="#212121" d="M69 26h1v1h-1zM70 26h1v1h-1zM73 26h1v1h-1zM74 26h1v1h-1zM75 26h1v1h-1zM76 26h1v1h-1zM77 26h1v1h-1zM78 26h1v1h-1zM79 26h1v1h-1zM80 26h1v1h-1zM81 26h1v1h-1zM82 26h1v1h-1zM83 26h1v1h-1zM84 26h1v1h-1zM11 27h1v1h-1z"/><path fill="#424242" d="M12 27h1v1h-1z"/><path fill="#212121" d="M13 27h1v1h-1z"/><path fill="#424242" d="M14 27h1v1h-1zM15 27h1v1h-1z"/><path fill="#212121" d="M16 27h1v1h-1zM25 27h1v1h-1zM26 27h1v1h-1zM44 27h1v1h-1z"/><path fill="#FFAD91" d="M45 27h1v1h-1z"/><path fill="#212121" d="M46 27h1v1h-1z"/><path fill="#FFAD91" d="M47 27h1v1h-1z"/><path fill="#212121" d="M48 27h1v1h-1zM68 27h1v1h-1zM69 27h1v1h-1zM78 27h1v1h-1z"/><path fill="#424242" d="M79 27h1v1h-1zM80 27h1v1h-1zM81 27h1v1h-1z"/><path fill="#212121" d="M82 27h1v1h-1z"/><path fill="#424242" d="M83 27h1v1h-1z"/><path fill="#212121" d="M84 27h1v1h-1zM11 28h1v1h-1z"/><path fill="#424242" d="M12 28h1v1h-1z"/><path fill="#212121" d="M13 28h1v1h-1z"/><path fill="#424242" d="M14 28h1v1h-1zM15 28h1v1h-1z"/><path fill="#212121" d="M16 28h1v1h-1zM44 28h1v1h-1z"/><path fill="#FFAD91" d="M45 28h1v1h-1z"/><path fill="#212121" d="M46 28h1v1h-1z"/><path fill="#FFAD91" d="M47 28h1v1h-1z"/><path fill="#212121" d="M48 28h1v1h-1zM78 28h1v1h-1z"/><path fill="#424242" d="M79 28h1v1h-1zM80 28h1v1h-1zM81 28h1v1h-1z"/><path fill="#212121" d="M82 28h1v1h-1z"/><path fill="#424242" d="M83 28h1v1h-1z"/><path fill="#212121" d="M84 28h1v1h-1zM10 29h1v1h-1zM11 29h1v1h-1zM12 29h1v1h-1zM13 29h1v1h-1zM14 29h1v1h-1zM15 29h1v1h-1zM16 29h1v1h-1zM43 29h1v1h-1zM44 29h1v1h-1zM45 29h1v1h-1zM46 29h1v1h-1zM47 29h1v1h-1zM48 29h1v1h-1zM78 29h1v1h-1zM79 29h1v1h-1zM80 29h1v1h-1zM81 29h1v1h-1zM82 29h1v1h-1zM83 29h1v1h-1zM84 29h1v1h-1zM85 29h1v1h-1zM42 35h1v1h-1zM43 35h1v1h-1zM44 35h1v1h-1zM45 35h1v1h-1zM46 35h1v1h-1zM47 35h1v1h-1zM40 36h1v1h-1zM41 36h1v1h-1z"/><path fill="#DD191D" d="M42 36h1v1h-1z"/><path fill="#E84E40" d="M43 36h1v1h-1z"/><path fill="#DD191D" d="M44 36h1v1h-1zM45 36h1v1h-1zM46 36h1v1h-1zM47 36h1v1h-1z"/><path fill="#212121" d="M48 36h1v1h-1zM49 36h1v1h-1z"/><path fill="#282828" d="M11 37h1v1h-1zM12 37h1v1h-1zM13 37h1v1h-1zM14 37h1v1h-1zM15 37h1v1h-1zM16 37h1v1h-1z"/><path fill="#212121" d="M39 37h1v1h-1z"/><path fill="#DD191D" d="M40 37h1v1h-1zM41 37h1v1h-1z"/><path fill="#E84E40" d="M42 37h1v1h-1z"/><path fill="#DD191D" d="M43 37h1v1h-1z"/><path fill="#E84E40" d="M44 37h1v1h-1z"/><path fill="#DD191D" d="M45 37h1v1h-1zM46 37h1v1h-1z"/><path fill="#212121" d="M47 37h1v1h-1zM48 37h1v1h-1zM9 38h1v1H9z"/><path fill="#282828" d="M10 38h1v1h-1z"/><path fill="#795548" d="M11 38h1v1h-1zM12 38h1v1h-1zM13 38h1v1h-1zM14 38h1v1h-1zM15 38h1v1h-1zM16 38h1v1h-1z"/><path fill="#282828" d="M17 38h1v1h-1zM18 38h1v1h-1z"/><path fill="#212121" d="M38 38h1v1h-1z"/><path fill="#DD191D" d="M39 38h1v1h-1z"/><path fill="#E84E40" d="M40 38h1v1h-1zM41 38h1v1h-1zM42 38h1v1h-1zM43 38h1v1h-1zM44 38h1v1h-1zM45 38h1v1h-1z"/><path fill="#DD191D" d="M46 38h1v1h-1z"/><path fill="#212121" d="M47 38h1v1h-1zM80 38h1v1h-1zM81 38h1v1h-1zM82 38h1v1h-1zM83 38h1v1h-1zM84 38h1v1h-1zM85 38h1v1h-1zM8 39h1v1H8z"/><path fill="#795548" d="M9 39h1v1H9zM10 39h1v1h-1zM11 39h1v1h-1zM12 39h1v1h-1zM13 39h1v1h-1zM14 39h1v1h-1zM15 39h1v1h-1z"/><path fill="#282828" d="M16 39h1v1h-1zM17 39h1v1h-1z"/><path fill="#212121" d="M37 39h1v1h-1z"/><path fill="#DD191D" d="M38 39h1v1h-1z"/><path fill="#E84E40" d="M39 39h1v1h-1zM40 39h1v1h-1zM41 39h1v1h-1z"/><path fill="#282828" d="M42 39h1v1h-1zM43 39h1v1h-1zM44 39h1v1h-1z"/><path fill="#E84E40" d="M45 39h1v1h-1z"/><path fill="#DD191D" d="M46 39h1v1h-1z"/><path fill="#212121" d="M47 39h1v1h-1zM79 39h1v1h-1z"/><path fill="#282828" d="M80 39h1v1h-1zM81 39h1v1h-1zM82 39h1v1h-1zM83 39h1v1h-1zM84 39h1v1h-1zM85 39h1v1h-1z"/><path fill="#212121" d="M86 39h1v1h-1zM7 40h1v1H7z"/><path fill="#795548" d="M8 40h1v1H8zM9 40h1v1H9zM10 40h1v1h-1z"/><path fill="#282828" d="M11 40h1v1h-1zM12 40h1v1h-1zM13 40h1v1h-1z"/><path fill="#795548" d="M14 40h1v1h-1zM15 40h1v1h-1z"/><path fill="#282828" d="M16 40h1v1h-1z"/><path fill="#212121" d="M37 40h1v1h-1z"/><path fill="#E84E40" d="M38 40h1v1h-1zM39 40h1v1h-1z"/><path fill="#282828" d="M40 40h1v1h-1zM41 40h1v1h-1zM42 40h1v1h-1zM43 40h1v1h-1z"/><path fill="#E84E40" d="M44 40h1v1h-1zM45 40h1v1h-1z"/><path fill="#DD191D" d="M46 40h1v1h-1z"/><path fill="#212121" d="M47 40h1v1h-1zM78 40h1v1h-1z"/><path fill="#282828" d="M79 40h1v1h-1zM80 40h1v1h-1zM81 40h1v1h-1zM82 40h1v1h-1zM83 40h1v1h-1zM84 40h1v1h-1zM85 40h1v1h-1zM86 40h1v1h-1z"/><path fill="#212121" d="M87 40h1v1h-1zM7 41h1v1H7z"/><path fill="#795548" d="M8 41h1v1H8zM9 41h1v1H9z"/><path fill="#212121" d="M10 41h1v1h-1zM11 41h1v1h-1zM12 41h1v1h-1z"/><path fill="#795548" d="M13 41h1v1h-1zM14 41h1v1h-1zM15 41h1v1h-1z"/><path fill="#212121" d="M16 41h1v1h-1zM37 41h1v1h-1z"/><path fill="#282828" d="M38 41h1v1h-1zM39 41h1v1h-1z"/><path fill="#212121" d="M40 41h1v1h-1zM41 41h1v1h-1zM42 41h1v1h-1z"/><path fill="#282828" d="M43 41h1v1h-1z"/><path fill="#E84E40" d="M44 41h1v1h-1zM45 41h1v1h-1z"/><path fill="#DD191D" d="M46 41h1v1h-1z"/><path fill="#212121" d="M47 41h1v1h-1zM78 41h1v1h-1z"/><path fill="#E0E0E0" d="M79 41h1v1h-1z"/><path fill="#282828" d="M80 41h1v1h-1zM81 41h1v1h-1z"/><path fill="#212121" d="M82 41h1v1h-1zM83 41h1v1h-1zM84 41h1v1h-1z"/><path fill="#282828" d="M85 41h1v1h-1zM86 41h1v1h-1z"/><path fill="#212121" d="M87 41h1v1h-1zM7 42h1v1H7z"/><path fill="#282828" d="M8 42h1v1H8zM9 42h1v1H9zM10 42h1v1h-1z"/><path fill="#212121" d="M11 42h1v1h-1z"/><path fill="#282828" d="M12 42h1v1h-1z"/><path fill="#795548" d="M13 42h1v1h-1zM14 42h1v1h-1zM15 42h1v1h-1zM16 42h1v1h-1z"/><path fill="#212121" d="M17 42h1v1h-1zM36 42h1v1h-1z"/><path fill="#DD191D" d="M37 42h1v1h-1zM38 42h1v1h-1z"/><path fill="#282828" d="M39 42h1v1h-1zM40 42h1v1h-1z"/><path fill="#212121" d="M41 42h1v1h-1z"/><path fill="#282828" d="M42 42h1v1h-1zM43 42h1v1h-1z"/><path fill="#E84E40" d="M44 42h1v1h-1zM45 42h1v1h-1z"/><path fill="#DD191D" d="M46 42h1v1h-1z"/><path fill="#212121" d="M47 42h1v1h-1zM77 42h1v1h-1z"/><path fill="#E0E0E0" d="M78 42h1v1h-1zM79 42h1v1h-1z"/><path fill="#282828" d="M80 42h1v1h-1zM81 42h1v1h-1zM82 42h1v1h-1z"/><path fill="#212121" d="M83 42h1v1h-1z"/><path fill="#282828" d="M84 42h1v1h-1zM85 42h1v1h-1zM86 42h1v1h-1z"/><path fill="#212121" d="M87 42h1v1h-1zM6 43h1v1H6z"/><path fill="#616161" d="M7 43h1v1H7zM8 43h1v1H8z"/><path fill="#282828" d="M9 43h1v1H9zM10 43h1v1h-1z"/><path fill="#212121" d="M11 43h1v1h-1z"/><path fill="#282828" d="M12 43h1v1h-1z"/><path fill="#BCAAA4" d="M13 43h1v1h-1z"/><path fill="#795548" d="M14 43h1v1h-1zM15 43h1v1h-1zM16 43h1v1h-1z"/><path fill="#212121" d="M17 43h1v1h-1zM35 43h1v1h-1z"/><path fill="#DD191D" d="M36 43h1v1h-1zM37 43h1v1h-1zM38 43h1v1h-1zM39 43h1v1h-1z"/><path fill="#282828" d="M40 43h1v1h-1z"/><path fill="#212121" d="M41 43h1v1h-1z"/><path fill="#282828" d="M42 43h1v1h-1zM43 43h1v1h-1z"/><path fill="#E84E40" d="M44 43h1v1h-1zM45 43h1v1h-1z"/><path fill="#DD191D" d="M46 43h1v1h-1zM47 43h1v1h-1z"/><path fill="#212121" d="M48 43h1v1h-1zM77 43h1v1h-1z"/><path fill="#E0E0E0" d="M78 43h1v1h-1zM79 43h1v1h-1zM80 43h1v1h-1z"/><path fill="#282828" d="M81 43h1v1h-1zM82 43h1v1h-1z"/><path fill="#212121" d="M83 43h1v1h-1z"/><path fill="#282828" d="M84 43h1v1h-1zM85 43h1v1h-1z"/><path fill="#616161" d="M86 43h1v1h-1zM87 43h1v1h-1z"/><path fill="#212121" d="M88 43h1v1h-1zM5 44h1v1H5z"/><path fill="#616161" d="M6 44h1v1H6zM7 44h1v1H7zM8 44h1v1H8zM9 44h1v1H9z"/><path fill="#E0E0E0" d="M10 44h1v1h-1zM11 44h1v1h-1z"/><path fill="#282828" d="M12 44h1v1h-1z"/><path fill="#795548" d="M13 44h1v1h-1z"/><path fill="#BCAAA4" d="M14 44h1v1h-1z"/><path fill="#795548" d="M15 44h1v1h-1zM16 44h1v1h-1zM17 44h1v1h-1z"/><path fill="#212121" d="M18 44h1v1h-1zM35 44h1v1h-1zM36 44h1v1h-1zM37 44h1v1h-1z"/><path fill="#DD191D" d="M38 44h1v1h-1zM39 44h1v1h-1z"/><path fill="#282828" d="M40 44h1v1h-1zM41 44h1v1h-1zM42 44h1v1h-1zM43 44h1v1h-1z"/><path fill="#E84E40" d="M44 44h1v1h-1z"/><path fill="#DD191D" d="M45 44h1v1h-1z"/><path fill="#E84E40" d="M46 44h1v1h-1z"/><path fill="#DD191D" d="M47 44h1v1h-1zM48 44h1v1h-1z"/><path fill="#212121" d="M49 44h1v1h-1zM76 44h1v1h-1z"/><path fill="#E0E0E0" d="M77 44h1v1h-1zM78 44h1v1h-1zM79 44h1v1h-1zM80 44h1v1h-1zM81 44h1v1h-1z"/><path fill="#282828" d="M82 44h1v1h-1zM83 44h1v1h-1zM84 44h1v1h-1z"/><path fill="#616161" d="M85 44h1v1h-1zM86 44h1v1h-1zM87 44h1v1h-1zM88 44h1v1h-1z"/><path fill="#212121" d="M89 44h1v1h-1zM5 45h1v1H5zM6 45h1v1H6zM7 45h1v1H7z"/><path fill="#616161" d="M8 45h1v1H8zM9 45h1v1H9z"/><path fill="#E0E0E0" d="M10 45h1v1h-1zM11 45h1v1h-1z"/><path fill="#282828" d="M12 45h1v1h-1z"/><path fill="#BCAAA4" d="M13 45h1v1h-1z"/><path fill="#795548" d="M14 45h1v1h-1z"/><path fill="#BCAAA4" d="M15 45h1v1h-1z"/><path fill="#795548" d="M16 45h1v1h-1zM17 45h1v1h-1z"/><path fill="#616161" d="M18 45h1v1h-1zM19 45h1v1h-1z"/><path fill="#212121" d="M37 45h1v1h-1z"/><path fill="#282828" d="M38 45h1v1h-1zM39 45h1v1h-1zM40 45h1v1h-1zM41 45h1v1h-1z"/><path fill="#E84E40" d="M42 45h1v1h-1zM43 45h1v1h-1zM44 45h1v1h-1zM45 45h1v1h-1z"/><path fill="#DD191D" d="M46 45h1v1h-1z"/><path fill="#E84E40" d="M47 45h1v1h-1z"/><path fill="#DD191D" d="M48 45h1v1h-1zM49 45h1v1h-1z"/><path fill="#212121" d="M50 45h1v1h-1zM75 45h1v1h-1z"/><path fill="#E0E0E0" d="M76 45h1v1h-1zM77 45h1v1h-1zM78 45h1v1h-1zM79 45h1v1h-1zM80 45h1v1h-1zM81 45h1v1h-1zM82 45h1v1h-1z"/><path fill="#282828" d="M83 45h1v1h-1zM84 45h1v1h-1z"/><path fill="#616161" d="M85 45h1v1h-1zM86 45h1v1h-1z"/><path fill="#212121" d="M87 45h1v1h-1zM88 45h1v1h-1zM89 45h1v1h-1zM7 46h1v1H7z"/><path fill="#E5D7D2" d="M8 46h1v1H8z"/><path fill="#BCAAA4" d="M9 46h1v1H9zM10 46h1v1h-1z"/><path fill="#795548" d="M11 46h1v1h-1z"/><path fill="#282828" d="M12 46h1v1h-1z"/><path fill="#BCAAA4" d="M13 46h1v1h-1zM14 46h1v1h-1z"/><path fill="#795548" d="M15 46h1v1h-1zM16 46h1v1h-1z"/><path fill="#616161" d="M17 46h1v1h-1zM18 46h1v1h-1z"/><path fill="#E0E0E0" d="M19 46h1v1h-1z"/><path fill="#212121" d="M20 46h1v1h-1zM37 46h1v1h-1z"/><path fill="#282828" d="M38 46h1v1h-1zM39 46h1v1h-1z"/><path fill="#E84E40" d="M40 46h1v1h-1zM41 46h1v1h-1zM42 46h1v1h-1zM43 46h1v1h-1zM44 46h1v1h-1z"/><path fill="#DD191D" d="M45 46h1v1h-1z"/><path fill="#E84E40" d="M46 46h1v1h-1z"/><path fill="#DD191D" d="M47 46h1v1h-1z"/><path fill="#E84E40" d="M48 46h1v1h-1z"/><path fill="#DD191D" d="M49 46h1v1h-1zM50 46h1v1h-1z"/><path fill="#212121" d="M51 46h1v1h-1zM74 46h1v1h-1z"/><path fill="#857D7B" d="M75 46h1v1h-1zM76 46h1v1h-1z"/><path fill="#E0E0E0" d="M77 46h1v1h-1zM78 46h1v1h-1zM79 46h1v1h-1zM80 46h1v1h-1zM81 46h1v1h-1zM82 46h1v1h-1zM83 46h1v1h-1zM84 46h1v1h-1zM85 46h1v1h-1z"/><path fill="#212121" d="M86 46h1v1h-1zM7 47h1v1H7z"/><path fill="#E0E0E0" d="M8 47h1v1H8zM9 47h1v1H9z"/><path fill="#BCAAA4" d="M10 47h1v1h-1zM11 47h1v1h-1z"/><path fill="#795548" d="M12 47h1v1h-1zM13 47h1v1h-1z"/><path fill="#616161" d="M14 47h1v1h-1z"/><path fill="#757575" d="M15 47h1v1h-1z"/><path fill="#795548" d="M16 47h1v1h-1z"/><path fill="#616161" d="M17 47h1v1h-1zM18 47h1v1h-1z"/><path fill="#E0E0E0" d="M19 47h1v1h-1zM20 47h1v1h-1z"/><path fill="#212121" d="M21 47h1v1h-1zM37 47h1v1h-1z"/><path fill="#282828" d="M38 47h1v1h-1z"/><path fill="#E84E40" d="M39 47h1v1h-1zM40 47h1v1h-1zM41 47h1v1h-1zM42 47h1v1h-1zM43 47h1v1h-1zM44 47h1v1h-1zM45 47h1v1h-1zM46 47h1v1h-1zM47 47h1v1h-1z"/><path fill="#DD191D" d="M48 47h1v1h-1zM49 47h1v1h-1z"/><path fill="#B0120A" d="M50 47h1v1h-1z"/><path fill="#DD191D" d="M51 47h1v1h-1z"/><path fill="#212121" d="M52 47h1v1h-1zM73 47h1v1h-1z"/><path fill="#857D7B" d="M74 47h1v1h-1zM75 47h1v1h-1zM76 47h1v1h-1zM77 47h1v1h-1zM78 47h1v1h-1zM79 47h1v1h-1z"/><path fill="#212121" d="M80 47h1v1h-1z"/><path fill="#E0E0E0" d="M81 47h1v1h-1zM82 47h1v1h-1zM83 47h1v1h-1zM84 47h1v1h-1z"/><path fill="#282828" d="M85 47h1v1h-1z"/><path fill="#212121" d="M86 47h1v1h-1zM7 48h1v1H7z"/><path fill="#E0E0E0" d="M8 48h1v1H8z"/><path fill="#BCAAA4" d="M9 48h1v1H9zM10 48h1v1h-1zM11 48h1v1h-1zM12 48h1v1h-1z"/><path fill="#616161" d="M13 48h1v1h-1z"/><path fill="#212121" d="M14 48h1v1h-1z"/><path fill="#616161" d="M15 48h1v1h-1z"/><path fill="#757575" d="M16 48h1v1h-1z"/><path fill="#616161" d="M17 48h1v1h-1z"/><path fill="#757575" d="M18 48h1v1h-1z"/><path fill="#616161" d="M19 48h1v1h-1z"/><path fill="#212121" d="M20 48h1v1h-1z"/><path fill="#E0E0E0" d="M21 48h1v1h-1z"/><path fill="#212121" d="M22 48h1v1h-1zM37 48h1v1h-1z"/><path fill="#E84E40" d="M38 48h1v1h-1zM39 48h1v1h-1zM40 48h1v1h-1zM41 48h1v1h-1zM42 48h1v1h-1zM43 48h1v1h-1zM44 48h1v1h-1z"/><path fill="#212121" d="M45 48h1v1h-1z"/><path fill="#DD191D" d="M46 48h1v1h-1zM47 48h1v1h-1z"/><path fill="#B0120A" d="M48 48h1v1h-1zM49 48h1v1h-1z"/><path fill="#DD191D" d="M50 48h1v1h-1zM51 48h1v1h-1zM52 48h1v1h-1z"/><path fill="#212121" d="M53 48h1v1h-1zM72 48h1v1h-1z"/><path fill="#857D7B" d="M73 48h1v1h-1zM74 48h1v1h-1zM75 48h1v1h-1z"/><path fill="#615B5A" d="M76 48h1v1h-1z"/><path fill="#857D7B" d="M77 48h1v1h-1zM78 48h1v1h-1z"/><path fill="#615B5A" d="M79 48h1v1h-1z"/><path fill="#212121" d="M80 48h1v1h-1z"/><path fill="#282828" d="M81 48h1v1h-1zM82 48h1v1h-1zM83 48h1v1h-1zM84 48h1v1h-1zM85 48h1v1h-1zM86 48h1v1h-1z"/><path fill="#212121" d="M87 48h1v1h-1zM7 49h1v1H7z"/><path fill="#FFF176" d="M8 49h1v1H8z"/><path fill="#E0E0E0" d="M9 49h1v1H9zM10 49h1v1h-1z"/><path fill="#BCAAA4" d="M11 49h1v1h-1zM12 49h1v1h-1z"/><path fill="#616161" d="M13 49h1v1h-1z"/><path fill="#212121" d="M14 49h1v1h-1z"/><path fill="#616161" d="M15 49h1v1h-1zM16 49h1v1h-1z"/><path fill="#757575" d="M17 49h1v1h-1z"/><path fill="#616161" d="M18 49h1v1h-1zM19 49h1v1h-1zM20 49h1v1h-1z"/><path fill="#212121" d="M21 49h1v1h-1z"/><path fill="#616161" d="M22 49h1v1h-1z"/><path fill="#212121" d="M23 49h1v1h-1zM37 49h1v1h-1z"/><path fill="#DD191D" d="M38 49h1v1h-1z"/><path fill="#E84E40" d="M39 49h1v1h-1zM40 49h1v1h-1zM41 49h1v1h-1zM42 49h1v1h-1zM43 49h1v1h-1zM44 49h1v1h-1z"/><path fill="#212121" d="M45 49h1v1h-1z"/><path fill="#B0120A" d="M46 49h1v1h-1zM47 49h1v1h-1z"/><path fill="#DD191D" d="M48 49h1v1h-1zM49 49h1v1h-1zM50 49h1v1h-1zM51 49h1v1h-1z"/><path fill="#212121" d="M52 49h1v1h-1z"/><path fill="#DD191D" d="M53 49h1v1h-1z"/><path fill="#212121" d="M54 49h1v1h-1zM71 49h1v1h-1z"/><path fill="#857D7B" d="M72 49h1v1h-1zM73 49h1v1h-1z"/><path fill="#212121" d="M74 49h1v1h-1z"/><path fill="#857D7B" d="M75 49h1v1h-1zM76 49h1v1h-1z"/><path fill="#615B5A" d="M77 49h1v1h-1zM78 49h1v1h-1z"/><path fill="#282828" d="M79 49h1v1h-1z"/><path fill="#EBD0A2" d="M80 49h1v1h-1z"/><path fill="#282828" d="M81 49h1v1h-1zM82 49h1v1h-1zM83 49h1v1h-1zM84 49h1v1h-1zM85 49h1v1h-1zM86 49h1v1h-1z"/><path fill="#212121" d="M87 49h1v1h-1zM7 50h1v1H7z"/><path fill="#FFF176" d="M8 50h1v1H8zM9 50h1v1H9z"/><path fill="#BCAAA4" d="M10 50h1v1h-1z"/><path fill="#E0E0E0" d="M11 50h1v1h-1z"/><path fill="#616161" d="M12 50h1v1h-1zM13 50h1v1h-1zM14 50h1v1h-1z"/><path fill="#212121" d="M15 50h1v1h-1z"/><path fill="#616161" d="M16 50h1v1h-1zM17 50h1v1h-1zM18 50h1v1h-1zM19 50h1v1h-1z"/><path fill="#757575" d="M20 50h1v1h-1z"/><path fill="#212121" d="M21 50h1v1h-1z"/><path fill="#616161" d="M22 50h1v1h-1z"/><path fill="#212121" d="M23 50h1v1h-1zM37 50h1v1h-1z"/><path fill="#E84E40" d="M38 50h1v1h-1z"/><path fill="#DD191D" d="M39 50h1v1h-1z"/><path fill="#E84E40" d="M40 50h1v1h-1zM41 50h1v1h-1zM42 50h1v1h-1z"/><path fill="#DD191D" d="M43 50h1v1h-1z"/><path fill="#E84E40" d="M44 50h1v1h-1zM45 50h1v1h-1z"/><path fill="#212121" d="M46 50h1v1h-1z"/><path fill="#DD191D" d="M47 50h1v1h-1zM48 50h1v1h-1zM49 50h1v1h-1zM50 50h1v1h-1z"/><path fill="#B0120A" d="M51 50h1v1h-1zM52 50h1v1h-1z"/><path fill="#212121" d="M53 50h1v1h-1z"/><path fill="#DD191D" d="M54 50h1v1h-1z"/><path fill="#212121" d="M55 50h1v1h-1zM71 50h1v1h-1z"/><path fill="#857D7B" d="M72 50h1v1h-1zM73 50h1v1h-1z"/><path fill="#212121" d="M74 50h1v1h-1z"/><path fill="#857D7B" d="M75 50h1v1h-1z"/><path fill="#615B5A" d="M76 50h1v1h-1z"/><path fill="#857D7B" d="M77 50h1v1h-1z"/><path fill="#615B5A" d="M78 50h1v1h-1z"/><path fill="#212121" d="M79 50h1v1h-1z"/><path fill="#EBD0A2" d="M80 50h1v1h-1z"/><path fill="#282828" d="M81 50h1v1h-1zM82 50h1v1h-1zM83 50h1v1h-1zM84 50h1v1h-1zM85 50h1v1h-1zM86 50h1v1h-1z"/><path fill="#212121" d="M87 50h1v1h-1zM7 51h1v1H7z"/><path fill="#FFF176" d="M8 51h1v1H8z"/><path fill="#E0E0E0" d="M9 51h1v1H9zM10 51h1v1h-1zM11 51h1v1h-1z"/><path fill="#616161" d="M12 51h1v1h-1zM13 51h1v1h-1zM14 51h1v1h-1zM15 51h1v1h-1z"/><path fill="#212121" d="M16 51h1v1h-1z"/><path fill="#757575" d="M17 51h1v1h-1zM18 51h1v1h-1zM19 51h1v1h-1z"/><path fill="#616161" d="M20 51h1v1h-1zM21 51h1v1h-1z"/><path fill="#212121" d="M22 51h1v1h-1z"/><path fill="#616161" d="M23 51h1v1h-1z"/><path fill="#212121" d="M24 51h1v1h-1zM37 51h1v1h-1z"/><path fill="#DD191D" d="M38 51h1v1h-1z"/><path fill="#E84E40" d="M39 51h1v1h-1z"/><path fill="#DD191D" d="M40 51h1v1h-1z"/><path fill="#E84E40" d="M41 51h1v1h-1zM42 51h1v1h-1zM43 51h1v1h-1z"/><path fill="#DD191D" d="M44 51h1v1h-1zM45 51h1v1h-1z"/><path fill="#E84E40" d="M46 51h1v1h-1z"/><path fill="#212121" d="M47 51h1v1h-1z"/><path fill="#DD191D" d="M48 51h1v1h-1z"/><path fill="#B0120A" d="M49 51h1v1h-1zM50 51h1v1h-1z"/><path fill="#DD191D" d="M51 51h1v1h-1zM52 51h1v1h-1z"/><path fill="#212121" d="M53 51h1v1h-1zM54 51h1v1h-1z"/><path fill="#DD191D" d="M55 51h1v1h-1z"/><path fill="#212121" d="M56 51h1v1h-1zM70 51h1v1h-1z"/><path fill="#857D7B" d="M71 51h1v1h-1zM72 51h1v1h-1zM73 51h1v1h-1z"/><path fill="#212121" d="M74 51h1v1h-1z"/><path fill="#615B5A" d="M75 51h1v1h-1zM76 51h1v1h-1zM77 51h1v1h-1z"/><path fill="#212121" d="M78 51h1v1h-1z"/><path fill="#EBD0A2" d="M79 51h1v1h-1zM80 51h1v1h-1zM81 51h1v1h-1z"/><path fill="#282828" d="M82 51h1v1h-1zM83 51h1v1h-1zM84 51h1v1h-1zM85 51h1v1h-1zM86 51h1v1h-1z"/><path fill="#212121" d="M87 51h1v1h-1zM8 52h1v1H8z"/><path fill="#FFF176" d="M9 52h1v1H9zM10 52h1v1h-1z"/><path fill="#E0E0E0" d="M11 52h1v1h-1zM12 52h1v1h-1z"/><path fill="#616161" d="M13 52h1v1h-1zM14 52h1v1h-1zM15 52h1v1h-1zM16 52h1v1h-1z"/><path fill="#212121" d="M17 52h1v1h-1zM18 52h1v1h-1zM19 52h1v1h-1zM20 52h1v1h-1zM21 52h1v1h-1zM22 52h1v1h-1z"/><path fill="#757575" d="M23 52h1v1h-1z"/><path fill="#212121" d="M24 52h1v1h-1zM38 52h1v1h-1z"/><path fill="#DD191D" d="M39 52h1v1h-1z"/><path fill="#B0120A" d="M40 52h1v1h-1z"/><path fill="#DD191D" d="M41 52h1v1h-1z"/><path fill="#E84E40" d="M42 52h1v1h-1zM43 52h1v1h-1zM44 52h1v1h-1zM45 52h1v1h-1zM46 52h1v1h-1zM47 52h1v1h-1z"/><path fill="#212121" d="M48 52h1v1h-1zM49 52h1v1h-1zM50 52h1v1h-1zM51 52h1v1h-1zM52 52h1v1h-1zM53 52h1v1h-1zM54 52h1v1h-1z"/><path fill="#B0120A" d="M55 52h1v1h-1z"/><path fill="#DD191D" d="M56 52h1v1h-1z"/><path fill="#212121" d="M57 52h1v1h-1zM70 52h1v1h-1z"/><path fill="#857D7B" d="M71 52h1v1h-1zM72 52h1v1h-1zM73 52h1v1h-1z"/><path fill="#212121" d="M74 52h1v1h-1zM75 52h1v1h-1zM76 52h1v1h-1zM77 52h1v1h-1z"/><path fill="#EBD0A2" d="M78 52h1v1h-1zM79 52h1v1h-1zM80 52h1v1h-1zM81 52h1v1h-1zM82 52h1v1h-1zM83 52h1v1h-1zM84 52h1v1h-1z"/><path fill="#282828" d="M85 52h1v1h-1zM86 52h1v1h-1z"/><path fill="#212121" d="M87 52h1v1h-1zM8 53h1v1H8z"/><path fill="#FFF176" d="M9 53h1v1H9z"/><path fill="#E0E0E0" d="M10 53h1v1h-1z"/><path fill="#FFF176" d="M11 53h1v1h-1z"/><path fill="#E0E0E0" d="M12 53h1v1h-1zM13 53h1v1h-1z"/><path fill="#616161" d="M14 53h1v1h-1zM15 53h1v1h-1zM16 53h1v1h-1zM17 53h1v1h-1zM18 53h1v1h-1zM19 53h1v1h-1zM20 53h1v1h-1z"/><path fill="#757575" d="M21 53h1v1h-1z"/><path fill="#616161" d="M22 53h1v1h-1zM23 53h1v1h-1z"/><path fill="#757575" d="M24 53h1v1h-1z"/><path fill="#212121" d="M25 53h1v1h-1zM39 53h1v1h-1z"/><path fill="#B0120A" d="M40 53h1v1h-1zM41 53h1v1h-1zM42 53h1v1h-1z"/><path fill="#DD191D" d="M43 53h1v1h-1z"/><path fill="#B0120A" d="M44 53h1v1h-1z"/><path fill="#DD191D" d="M45 53h1v1h-1z"/><path fill="#B0120A" d="M46 53h1v1h-1zM47 53h1v1h-1zM48 53h1v1h-1zM49 53h1v1h-1zM50 53h1v1h-1zM51 53h1v1h-1zM52 53h1v1h-1zM53 53h1v1h-1zM54 53h1v1h-1z"/><path fill="#DD191D" d="M55 53h1v1h-1z"/><path fill="#B0120A" d="M56 53h1v1h-1z"/><path fill="#DD191D" d="M57 53h1v1h-1z"/><path fill="#212121" d="M58 53h1v1h-1zM69 53h1v1h-1z"/><path fill="#857D7B" d="M70 53h1v1h-1z"/><path fill="#615B5A" d="M71 53h1v1h-1z"/><path fill="#857D7B" d="M72 53h1v1h-1zM73 53h1v1h-1z"/><path fill="#615B5A" d="M74 53h1v1h-1z"/><path fill="#EBD0A2" d="M75 53h1v1h-1zM76 53h1v1h-1zM77 53h1v1h-1zM78 53h1v1h-1zM79 53h1v1h-1zM80 53h1v1h-1zM81 53h1v1h-1zM82 53h1v1h-1z"/><path fill="#BFA984" d="M83 53h1v1h-1z"/><path fill="#EBD0A2" d="M84 53h1v1h-1z"/><path fill="#BFA984" d="M85 53h1v1h-1zM86 53h1v1h-1z"/><path fill="#212121" d="M87 53h1v1h-1zM9 54h1v1H9z"/><path fill="#FFF176" d="M10 54h1v1h-1z"/><path fill="#E0E0E0" d="M11 54h1v1h-1z"/><path fill="#FFF176" d="M12 54h1v1h-1zM13 54h1v1h-1z"/><path fill="#E0E0E0" d="M14 54h1v1h-1z"/><path fill="#616161" d="M15 54h1v1h-1z"/><path fill="#E0E0E0" d="M16 54h1v1h-1z"/><path fill="#616161" d="M17 54h1v1h-1zM18 54h1v1h-1zM19 54h1v1h-1zM20 54h1v1h-1zM21 54h1v1h-1z"/><path fill="#757575" d="M22 54h1v1h-1z"/><path fill="#616161" d="M23 54h1v1h-1z"/><path fill="#757575" d="M24 54h1v1h-1z"/><path fill="#212121" d="M25 54h1v1h-1zM40 54h1v1h-1z"/><path fill="#B0120A" d="M41 54h1v1h-1zM42 54h1v1h-1zM43 54h1v1h-1zM44 54h1v1h-1zM45 54h1v1h-1z"/><path fill="#DD191D" d="M46 54h1v1h-1z"/><path fill="#B0120A" d="M47 54h1v1h-1zM48 54h1v1h-1zM49 54h1v1h-1zM50 54h1v1h-1zM51 54h1v1h-1zM52 54h1v1h-1zM53 54h1v1h-1z"/><path fill="#DD191D" d="M54 54h1v1h-1z"/><path fill="#B0120A" d="M55 54h1v1h-1z"/><path fill="#DD191D" d="M56 54h1v1h-1zM57 54h1v1h-1z"/><path fill="#212121" d="M58 54h1v1h-1zM69 54h1v1h-1z"/><path fill="#857D7B" d="M70 54h1v1h-1z"/><path fill="#615B5A" d="M71 54h1v1h-1z"/><path fill="#857D7B" d="M72 54h1v1h-1z"/><path fill="#615B5A" d="M73 54h1v1h-1z"/><path fill="#EBD0A2" d="M74 54h1v1h-1zM75 54h1v1h-1zM76 54h1v1h-1zM77 54h1v1h-1zM78 54h1v1h-1zM79 54h1v1h-1zM80 54h1v1h-1z"/><path fill="#BFA984" d="M81 54h1v1h-1z"/><path fill="#EBD0A2" d="M82 54h1v1h-1zM83 54h1v1h-1z"/><path fill="#BFA984" d="M84 54h1v1h-1zM85 54h1v1h-1z"/><path fill="#212121" d="M86 54h1v1h-1zM10 55h1v1h-1z"/><path fill="#FFF176" d="M11 55h1v1h-1zM12 55h1v1h-1z"/><path fill="#E0E0E0" d="M13 55h1v1h-1z"/><path fill="#FFF176" d="M14 55h1v1h-1z"/><path fill="#E0E0E0" d="M15 55h1v1h-1z"/><path fill="#FFF176" d="M16 55h1v1h-1z"/><path fill="#E0E0E0" d="M17 55h1v1h-1zM18 55h1v1h-1zM19 55h1v1h-1zM20 55h1v1h-1zM21 55h1v1h-1z"/><path fill="#616161" d="M22 55h1v1h-1z"/><path fill="#757575" d="M23 55h1v1h-1z"/><path fill="#FFF176" d="M24 55h1v1h-1z"/><path fill="#616161" d="M25 55h1v1h-1z"/><path fill="#212121" d="M26 55h1v1h-1zM41 55h1v1h-1z"/><path fill="#B0120A" d="M42 55h1v1h-1zM43 55h1v1h-1zM44 55h1v1h-1zM45 55h1v1h-1zM46 55h1v1h-1z"/><path fill="#DD191D" d="M47 55h1v1h-1z"/><path fill="#B0120A" d="M48 55h1v1h-1zM49 55h1v1h-1zM50 55h1v1h-1zM51 55h1v1h-1zM52 55h1v1h-1z"/><path fill="#DD191D" d="M53 55h1v1h-1z"/><path fill="#B0120A" d="M54 55h1v1h-1zM55 55h1v1h-1zM56 55h1v1h-1zM57 55h1v1h-1z"/><path fill="#DD191D" d="M58 55h1v1h-1z"/><path fill="#212121" d="M59 55h1v1h-1zM68 55h1v1h-1z"/><path fill="#857D7B" d="M69 55h1v1h-1z"/><path fill="#615B5A" d="M70 55h1v1h-1z"/><path fill="#857D7B" d="M71 55h1v1h-1z"/><path fill="#615B5A" d="M72 55h1v1h-1z"/><path fill="#BFA984" d="M73 55h1v1h-1zM74 55h1v1h-1z"/><path fill="#EBD0A2" d="M75 55h1v1h-1z"/><path fill="#BFA984" d="M76 55h1v1h-1z"/><path fill="#EBD0A2" d="M77 55h1v1h-1z"/><path fill="#BFA984" d="M78 55h1v1h-1z"/><path fill="#EBD0A2" d="M79 55h1v1h-1z"/><path fill="#BFA984" d="M80 55h1v1h-1zM81 55h1v1h-1zM82 55h1v1h-1zM83 55h1v1h-1zM84 55h1v1h-1z"/><path fill="#212121" d="M85 55h1v1h-1zM11 56h1v1h-1z"/><path fill="#FFF176" d="M12 56h1v1h-1zM13 56h1v1h-1zM14 56h1v1h-1zM15 56h1v1h-1zM16 56h1v1h-1zM17 56h1v1h-1zM18 56h1v1h-1zM19 56h1v1h-1z"/><path fill="#212121" d="M20 56h1v1h-1zM21 56h1v1h-1z"/><path fill="#E0E0E0" d="M22 56h1v1h-1zM23 56h1v1h-1zM24 56h1v1h-1z"/><path fill="#FFF176" d="M25 56h1v1h-1zM26 56h1v1h-1z"/><path fill="#212121" d="M27 56h1v1h-1zM42 56h1v1h-1z"/><path fill="#B0120A" d="M43 56h1v1h-1zM44 56h1v1h-1zM45 56h1v1h-1zM46 56h1v1h-1zM47 56h1v1h-1zM48 56h1v1h-1z"/><path fill="#212121" d="M49 56h1v1h-1z"/><path fill="#B0120A" d="M50 56h1v1h-1zM51 56h1v1h-1zM52 56h1v1h-1zM53 56h1v1h-1z"/><path fill="#212121" d="M54 56h1v1h-1zM55 56h1v1h-1z"/><path fill="#B0120A" d="M56 56h1v1h-1zM57 56h1v1h-1zM58 56h1v1h-1z"/><path fill="#212121" d="M59 56h1v1h-1zM67 56h1v1h-1z"/><path fill="#615B5A" d="M68 56h1v1h-1zM69 56h1v1h-1zM70 56h1v1h-1zM71 56h1v1h-1z"/><path fill="#282828" d="M72 56h1v1h-1z"/><path fill="#212121" d="M73 56h1v1h-1zM74 56h1v1h-1z"/><path fill="#BFA984" d="M75 56h1v1h-1zM76 56h1v1h-1zM77 56h1v1h-1zM78 56h1v1h-1zM79 56h1v1h-1zM80 56h1v1h-1zM81 56h1v1h-1zM82 56h1v1h-1zM83 56h1v1h-1z"/><path fill="#212121" d="M84 56h1v1h-1zM12 57h1v1h-1zM13 57h1v1h-1zM14 57h1v1h-1zM15 57h1v1h-1zM16 57h1v1h-1zM17 57h1v1h-1zM18 57h1v1h-1zM19 57h1v1h-1zM22 57h1v1h-1zM23 57h1v1h-1zM24 57h1v1h-1zM25 57h1v1h-1zM26 57h1v1h-1zM43 57h1v1h-1zM44 57h1v1h-1zM45 57h1v1h-1zM46 57h1v1h-1zM47 57h1v1h-1zM48 57h1v1h-1zM49 57h1v1h-1zM50 57h1v1h-1zM51 57h1v1h-1zM52 57h1v1h-1zM53 57h1v1h-1zM56 57h1v1h-1zM57 57h1v1h-1z"/><path fill="#DD191D" d="M58 57h1v1h-1z"/><path fill="#212121" d="M59 57h1v1h-1zM67 57h1v1h-1zM68 57h1v1h-1zM69 57h1v1h-1zM70 57h1v1h-1zM71 57h1v1h-1zM72 57h1v1h-1zM75 57h1v1h-1zM76 57h1v1h-1zM77 57h1v1h-1zM78 57h1v1h-1zM79 57h1v1h-1zM80 57h1v1h-1zM81 57h1v1h-1zM82 57h1v1h-1zM83 57h1v1h-1zM12 58h1v1h-1z"/><path fill="#616161" d="M13 58h1v1h-1z"/><path fill="#212121" d="M14 58h1v1h-1z"/><path fill="#616161" d="M15 58h1v1h-1z"/><path fill="#212121" d="M16 58h1v1h-1zM43 58h1v1h-1z"/><path fill="#DD191D" d="M44 58h1v1h-1z"/><path fill="#212121" d="M45 58h1v1h-1z"/><path fill="#DD191D" d="M46 58h1v1h-1zM47 58h1v1h-1z"/><path fill="#212121" d="M48 58h1v1h-1zM57 58h1v1h-1zM58 58h1v1h-1zM78 58h1v1h-1z"/><path fill="#FFAD91" d="M79 58h1v1h-1z"/><path fill="#212121" d="M80 58h1v1h-1z"/><path fill="#FFAD91" d="M81 58h1v1h-1z"/><path fill="#212121" d="M82 58h1v1h-1zM12 59h1v1h-1z"/><path fill="#616161" d="M13 59h1v1h-1z"/><path fill="#212121" d="M14 59h1v1h-1z"/><path fill="#616161" d="M15 59h1v1h-1z"/><path fill="#212121" d="M16 59h1v1h-1zM43 59h1v1h-1z"/><path fill="#DD191D" d="M44 59h1v1h-1z"/><path fill="#212121" d="M45 59h1v1h-1z"/><path fill="#DD191D" d="M46 59h1v1h-1zM47 59h1v1h-1z"/><path fill="#212121" d="M48 59h1v1h-1zM78 59h1v1h-1z"/><path fill="#FFAD91" d="M79 59h1v1h-1z"/><path fill="#212121" d="M80 59h1v1h-1z"/><path fill="#FFAD91" d="M81 59h1v1h-1z"/><path fill="#212121" d="M82 59h1v1h-1zM11 60h1v1h-1zM12 60h1v1h-1zM13 60h1v1h-1zM14 60h1v1h-1zM15 60h1v1h-1zM16 60h1v1h-1zM42 60h1v1h-1zM43 60h1v1h-1zM44 60h1v1h-1zM45 60h1v1h-1zM46 60h1v1h-1zM47 60h1v1h-1zM48 60h1v1h-1zM78 60h1v1h-1zM79 60h1v1h-1zM80 60h1v1h-1zM81 60h1v1h-1zM82 60h1v1h-1zM83 60h1v1h-1zM16 69h1v1h-1zM17 69h1v1h-1zM18 69h1v1h-1zM19 69h1v1h-1zM20 69h1v1h-1zM21 69h1v1h-1zM48 69h1v1h-1zM49 69h1v1h-1zM50 69h1v1h-1zM51 69h1v1h-1zM52 69h1v1h-1zM53 69h1v1h-1zM72 69h1v1h-1zM73 69h1v1h-1zM74 69h1v1h-1zM75 69h1v1h-1zM76 69h1v1h-1zM77 69h1v1h-1zM15 70h1v1h-1z"/><path fill="#AC8477" d="M16 70h1v1h-1zM17 70h1v1h-1zM18 70h1v1h-1zM19 70h1v1h-1zM20 70h1v1h-1zM21 70h1v1h-1z"/><path fill="#212121" d="M22 70h1v1h-1zM47 70h1v1h-1z"/><path fill="#825F3B" d="M48 70h1v1h-1zM49 70h1v1h-1z"/><path fill="#6D5741" d="M50 70h1v1h-1z"/><path fill="#D53330" d="M51 70h1v1h-1zM52 70h1v1h-1z"/><path fill="#825F3B" d="M53 70h1v1h-1z"/><path fill="#212121" d="M54 70h1v1h-1zM71 70h1v1h-1z"/><path fill="#6D4C41" d="M72 70h1v1h-1zM73 70h1v1h-1z"/><path fill="#785C53" d="M74 70h1v1h-1zM75 70h1v1h-1z"/><path fill="#6D4C41" d="M76 70h1v1h-1zM77 70h1v1h-1z"/><path fill="#212121" d="M78 70h1v1h-1zM14 71h1v1h-1z"/><path fill="#AC8477" d="M15 71h1v1h-1zM16 71h1v1h-1zM17 71h1v1h-1zM18 71h1v1h-1zM19 71h1v1h-1zM20 71h1v1h-1zM21 71h1v1h-1z"/><path fill="#E5D7D2" d="M22 71h1v1h-1z"/><path fill="#212121" d="M23 71h1v1h-1zM46 71h1v1h-1z"/><path fill="#825F3B" d="M47 71h1v1h-1zM48 71h1v1h-1z"/><path fill="#6D5741" d="M49 71h1v1h-1zM50 71h1v1h-1zM51 71h1v1h-1z"/><path fill="#D53330" d="M52 71h1v1h-1zM53 71h1v1h-1z"/><path fill="#825F3B" d="M54 71h1v1h-1z"/><path fill="#212121" d="M55 71h1v1h-1zM70 71h1v1h-1z"/><path fill="#6D4C41" d="M71 71h1v1h-1z"/><path fill="#785C53" d="M72 71h1v1h-1zM73 71h1v1h-1z"/><path fill="#8D6E63" d="M74 71h1v1h-1zM75 71h1v1h-1zM76 71h1v1h-1z"/><path fill="#6D4C41" d="M77 71h1v1h-1zM78 71h1v1h-1z"/><path fill="#212121" d="M79 71h1v1h-1zM14 72h1v1h-1z"/><path fill="#AC8477" d="M15 72h1v1h-1zM16 72h1v1h-1z"/><path fill="#E5D7D2" d="M17 72h1v1h-1z"/><path fill="#212121" d="M18 72h1v1h-1zM19 72h1v1h-1zM20 72h1v1h-1z"/><path fill="#AC8477" d="M21 72h1v1h-1zM22 72h1v1h-1z"/><path fill="#212121" d="M23 72h1v1h-1zM46 72h1v1h-1z"/><path fill="#825F3B" d="M47 72h1v1h-1z"/><path fill="#EEE" d="M48 72h1v1h-1zM49 72h1v1h-1z"/><path fill="#212121" d="M50 72h1v1h-1zM51 72h1v1h-1zM52 72h1v1h-1z"/><path fill="#6D5741" d="M53 72h1v1h-1zM54 72h1v1h-1z"/><path fill="#212121" d="M55 72h1v1h-1zM70 72h1v1h-1z"/><path fill="#6D4C41" d="M71 72h1v1h-1z"/><path fill="#EEE" d="M72 72h1v1h-1z"/><path fill="#212121" d="M73 72h1v1h-1zM74 72h1v1h-1zM75 72h1v1h-1z"/><path fill="#EEE" d="M76 72h1v1h-1zM77 72h1v1h-1z"/><path fill="#6D4C41" d="M78 72h1v1h-1z"/><path fill="#212121" d="M79 72h1v1h-1zM13 73h1v1h-1z"/><path fill="#AC8477" d="M14 73h1v1h-1zM15 73h1v1h-1z"/><path fill="#E5D7D2" d="M16 73h1v1h-1z"/><path fill="#AC8477" d="M17 73h1v1h-1zM18 73h1v1h-1z"/><path fill="#212121" d="M19 73h1v1h-1z"/><path fill="#D5BFB7" d="M20 73h1v1h-1zM21 73h1v1h-1z"/><path fill="#AC8477" d="M22 73h1v1h-1z"/><path fill="#212121" d="M23 73h1v1h-1zM45 73h1v1h-1z"/><path fill="#EEE" d="M46 73h1v1h-1zM47 73h1v1h-1z"/><path fill="#825F3B" d="M48 73h1v1h-1z"/><path fill="#EEE" d="M49 73h1v1h-1zM50 73h1v1h-1z"/><path fill="#212121" d="M51 73h1v1h-1z"/><path fill="#6D5741" d="M52 73h1v1h-1zM53 73h1v1h-1z"/><path fill="#C67713" d="M54 73h1v1h-1z"/><path fill="#212121" d="M55 73h1v1h-1zM70 73h1v1h-1z"/><path fill="#DFAB91" d="M71 73h1v1h-1z"/><path fill="#8D6E63" d="M72 73h1v1h-1zM73 73h1v1h-1z"/><path fill="#212121" d="M74 73h1v1h-1z"/><path fill="#8D6E63" d="M75 73h1v1h-1zM76 73h1v1h-1zM77 73h1v1h-1z"/><path fill="#EEE" d="M78 73h1v1h-1zM79 73h1v1h-1z"/><path fill="#212121" d="M80 73h1v1h-1zM13 74h1v1h-1z"/><path fill="#AC8477" d="M14 74h1v1h-1zM15 74h1v1h-1zM16 74h1v1h-1z"/><path fill="#D5BFB7" d="M17 74h1v1h-1z"/><path fill="#AC8477" d="M18 74h1v1h-1z"/><path fill="#212121" d="M19 74h1v1h-1z"/><path fill="#D5BFB7" d="M20 74h1v1h-1zM21 74h1v1h-1z"/><path fill="#FFAD91" d="M22 74h1v1h-1zM23 74h1v1h-1z"/><path fill="#212121" d="M24 74h1v1h-1zM45 74h1v1h-1z"/><path fill="#6D5741" d="M46 74h1v1h-1z"/><path fill="#EEE" d="M47 74h1v1h-1zM48 74h1v1h-1z"/><path fill="#D0C2B3" d="M49 74h1v1h-1z"/><path fill="#EEE" d="M50 74h1v1h-1z"/><path fill="#212121" d="M51 74h1v1h-1z"/><path fill="#6D5741" d="M52 74h1v1h-1zM53 74h1v1h-1z"/><path fill="#C67713" d="M54 74h1v1h-1zM55 74h1v1h-1z"/><path fill="#212121" d="M56 74h1v1h-1zM69 74h1v1h-1z"/><path fill="#DFAB91" d="M70 74h1v1h-1zM71 74h1v1h-1z"/><path fill="#8D6E63" d="M72 74h1v1h-1zM73 74h1v1h-1z"/><path fill="#212121" d="M74 74h1v1h-1z"/><path fill="#8D6E63" d="M75 74h1v1h-1zM76 74h1v1h-1zM77 74h1v1h-1zM78 74h1v1h-1zM79 74h1v1h-1z"/><path fill="#212121" d="M80 74h1v1h-1zM12 75h1v1h-1z"/><path fill="#AC8477" d="M13 75h1v1h-1zM14 75h1v1h-1zM15 75h1v1h-1z"/><path fill="#D5BFB7" d="M16 75h1v1h-1zM17 75h1v1h-1zM18 75h1v1h-1z"/><path fill="#AC8477" d="M19 75h1v1h-1z"/><path fill="#D5BFB7" d="M20 75h1v1h-1z"/><path fill="#FFAD91" d="M21 75h1v1h-1zM22 75h1v1h-1zM23 75h1v1h-1zM24 75h1v1h-1z"/><path fill="#212121" d="M25 75h1v1h-1zM44 75h1v1h-1z"/><path fill="#825F3B" d="M45 75h1v1h-1z"/><path fill="#6D5741" d="M46 75h1v1h-1z"/><path fill="#825F3B" d="M47 75h1v1h-1z"/><path fill="#FFD5D4" d="M48 75h1v1h-1z"/><path fill="#EEE" d="M49 75h1v1h-1z"/><path fill="#D0C2B3" d="M50 75h1v1h-1z"/><path fill="#6D5741" d="M51 75h1v1h-1zM52 75h1v1h-1z"/><path fill="#C67713" d="M53 75h1v1h-1zM54 75h1v1h-1zM55 75h1v1h-1zM56 75h1v1h-1z"/><path fill="#212121" d="M57 75h1v1h-1zM68 75h1v1h-1z"/><path fill="#DFAB91" d="M69 75h1v1h-1zM70 75h1v1h-1zM71 75h1v1h-1zM72 75h1v1h-1z"/><path fill="#8D6E63" d="M73 75h1v1h-1zM74 75h1v1h-1zM75 75h1v1h-1zM76 75h1v1h-1zM77 75h1v1h-1zM78 75h1v1h-1zM79 75h1v1h-1zM80 75h1v1h-1z"/><path fill="#212121" d="M81 75h1v1h-1zM11 76h1v1h-1z"/><path fill="#AC8477" d="M12 76h1v1h-1zM13 76h1v1h-1zM14 76h1v1h-1zM15 76h1v1h-1z"/><path fill="#D5BFB7" d="M16 76h1v1h-1zM17 76h1v1h-1zM18 76h1v1h-1zM19 76h1v1h-1zM20 76h1v1h-1z"/><path fill="#FFAD91" d="M21 76h1v1h-1zM22 76h1v1h-1z"/><path fill="#212121" d="M23 76h1v1h-1zM24 76h1v1h-1zM25 76h1v1h-1zM43 76h1v1h-1z"/><path fill="#6D5741" d="M44 76h1v1h-1zM45 76h1v1h-1z"/><path fill="#825F3B" d="M46 76h1v1h-1z"/><path fill="#EEE" d="M47 76h1v1h-1z"/><path fill="#825F3B" d="M48 76h1v1h-1z"/><path fill="#D0C2B3" d="M49 76h1v1h-1z"/><path fill="#FFD5D4" d="M50 76h1v1h-1z"/><path fill="#D0C2B3" d="M51 76h1v1h-1z"/><path fill="#6D5741" d="M52 76h1v1h-1z"/><path fill="#C67713" d="M53 76h1v1h-1zM54 76h1v1h-1z"/><path fill="#212121" d="M55 76h1v1h-1zM56 76h1v1h-1zM57 76h1v1h-1zM68 76h1v1h-1zM69 76h1v1h-1zM70 76h1v1h-1z"/><path fill="#DFAB91" d="M71 76h1v1h-1zM72 76h1v1h-1z"/><path fill="#8D6E63" d="M73 76h1v1h-1zM74 76h1v1h-1zM75 76h1v1h-1zM76 76h1v1h-1zM77 76h1v1h-1zM78 76h1v1h-1zM79 76h1v1h-1zM80 76h1v1h-1z"/><path fill="#785C53" d="M81 76h1v1h-1z"/><path fill="#212121" d="M82 76h1v1h-1zM10 77h1v1h-1z"/><path fill="#A1705F" d="M11 77h1v1h-1z"/><path fill="#AC8477" d="M12 77h1v1h-1zM13 77h1v1h-1zM14 77h1v1h-1zM15 77h1v1h-1z"/><path fill="#D5BFB7" d="M16 77h1v1h-1zM17 77h1v1h-1zM18 77h1v1h-1zM19 77h1v1h-1zM20 77h1v1h-1zM21 77h1v1h-1z"/><path fill="#E5D7D2" d="M22 77h1v1h-1z"/><path fill="#212121" d="M23 77h1v1h-1zM42 77h1v1h-1z"/><path fill="#6D5741" d="M43 77h1v1h-1zM44 77h1v1h-1zM45 77h1v1h-1zM46 77h1v1h-1z"/><path fill="#825F3B" d="M47 77h1v1h-1z"/><path fill="#EEE" d="M48 77h1v1h-1z"/><path fill="#D0C2B3" d="M49 77h1v1h-1z"/><path fill="#EEE" d="M50 77h1v1h-1z"/><path fill="#F5B1B0" d="M51 77h1v1h-1z"/><path fill="#D53330" d="M52 77h1v1h-1z"/><path fill="#825F3B" d="M53 77h1v1h-1z"/><path fill="#212121" d="M54 77h1v1h-1zM71 77h1v1h-1z"/><path fill="#6D4C41" d="M72 77h1v1h-1z"/><path fill="#8D6E63" d="M73 77h1v1h-1z"/><path fill="#EEE" d="M74 77h1v1h-1z"/><path fill="#8D6E63" d="M75 77h1v1h-1z"/><path fill="#EEE" d="M76 77h1v1h-1z"/><path fill="#8D6E63" d="M77 77h1v1h-1zM78 77h1v1h-1zM79 77h1v1h-1zM80 77h1v1h-1zM81 77h1v1h-1z"/><path fill="#785C53" d="M82 77h1v1h-1z"/><path fill="#212121" d="M83 77h1v1h-1zM9 78h1v1H9z"/><path fill="#E5D7D2" d="M10 78h1v1h-1z"/><path fill="#A1705F" d="M11 78h1v1h-1z"/><path fill="#AC8477" d="M12 78h1v1h-1zM13 78h1v1h-1zM14 78h1v1h-1zM15 78h1v1h-1zM16 78h1v1h-1z"/><path fill="#D5BFB7" d="M17 78h1v1h-1zM18 78h1v1h-1zM19 78h1v1h-1zM20 78h1v1h-1zM21 78h1v1h-1zM22 78h1v1h-1z"/><path fill="#212121" d="M23 78h1v1h-1zM41 78h1v1h-1z"/><path fill="#6D5741" d="M42 78h1v1h-1z"/><path fill="#825F3B" d="M43 78h1v1h-1z"/><path fill="#6D5741" d="M44 78h1v1h-1zM45 78h1v1h-1zM46 78h1v1h-1zM47 78h1v1h-1z"/><path fill="#212121" d="M48 78h1v1h-1z"/><path fill="#EEE" d="M49 78h1v1h-1z"/><path fill="#D0C2B3" d="M50 78h1v1h-1z"/><path fill="#EEE" d="M51 78h1v1h-1z"/><path fill="#F5B1B0" d="M52 78h1v1h-1z"/><path fill="#D53330" d="M53 78h1v1h-1z"/><path fill="#212121" d="M54 78h1v1h-1zM71 78h1v1h-1z"/><path fill="#EEE" d="M72 78h1v1h-1z"/><path fill="#8D6E63" d="M73 78h1v1h-1zM74 78h1v1h-1z"/><path fill="#EEE" d="M75 78h1v1h-1z"/><path fill="#8D6E63" d="M76 78h1v1h-1z"/><path fill="#212121" d="M77 78h1v1h-1z"/><path fill="#6D4C41" d="M78 78h1v1h-1z"/><path fill="#8D6E63" d="M79 78h1v1h-1zM80 78h1v1h-1zM81 78h1v1h-1zM82 78h1v1h-1z"/><path fill="#785C53" d="M83 78h1v1h-1z"/><path fill="#212121" d="M84 78h1v1h-1zM8 79h1v1H8z"/><path fill="#A1705F" d="M9 79h1v1H9z"/><path fill="#AC8477" d="M10 79h1v1h-1z"/><path fill="#E5D7D2" d="M11 79h1v1h-1z"/><path fill="#A1705F" d="M12 79h1v1h-1z"/><path fill="#AC8477" d="M13 79h1v1h-1zM14 79h1v1h-1zM15 79h1v1h-1z"/><path fill="#212121" d="M16 79h1v1h-1z"/><path fill="#D5BFB7" d="M17 79h1v1h-1zM18 79h1v1h-1zM19 79h1v1h-1zM20 79h1v1h-1zM21 79h1v1h-1zM22 79h1v1h-1z"/><path fill="#212121" d="M23 79h1v1h-1zM40 79h1v1h-1z"/><path fill="#6D5741" d="M41 79h1v1h-1zM42 79h1v1h-1zM43 79h1v1h-1z"/><path fill="#825F3B" d="M44 79h1v1h-1z"/><path fill="#6D5741" d="M45 79h1v1h-1zM46 79h1v1h-1zM47 79h1v1h-1z"/><path fill="#212121" d="M48 79h1v1h-1z"/><path fill="#D0C2B3" d="M49 79h1v1h-1z"/><path fill="#FFD5D4" d="M50 79h1v1h-1z"/><path fill="#EEE" d="M51 79h1v1h-1z"/><path fill="#FFD5D4" d="M52 79h1v1h-1z"/><path fill="#F5B1B0" d="M53 79h1v1h-1z"/><path fill="#D53330" d="M54 79h1v1h-1z"/><path fill="#212121" d="M55 79h1v1h-1zM70 79h1v1h-1z"/><path fill="#EEE" d="M71 79h1v1h-1z"/><path fill="#8D6E63" d="M72 79h1v1h-1z"/><path fill="#EEE" d="M73 79h1v1h-1z"/><path fill="#8D6E63" d="M74 79h1v1h-1z"/><path fill="#EEE" d="M75 79h1v1h-1zM76 79h1v1h-1z"/><path fill="#212121" d="M77 79h1v1h-1z"/><path fill="#6D4C41" d="M78 79h1v1h-1z"/><path fill="#8D6E63" d="M79 79h1v1h-1zM80 79h1v1h-1zM81 79h1v1h-1zM82 79h1v1h-1zM83 79h1v1h-1z"/><path fill="#785C53" d="M84 79h1v1h-1z"/><path fill="#212121" d="M85 79h1v1h-1zM7 80h1v1H7z"/><path fill="#E5D7D2" d="M8 80h1v1H8z"/><path fill="#A1705F" d="M9 80h1v1H9z"/><path fill="#AC8477" d="M10 80h1v1h-1zM11 80h1v1h-1z"/><path fill="#E5D7D2" d="M12 80h1v1h-1z"/><path fill="#A1705F" d="M13 80h1v1h-1zM14 80h1v1h-1zM15 80h1v1h-1z"/><path fill="#212121" d="M16 80h1v1h-1z"/><path fill="#D5BFB7" d="M17 80h1v1h-1zM18 80h1v1h-1zM19 80h1v1h-1zM20 80h1v1h-1zM21 80h1v1h-1z"/><path fill="#E5D7D2" d="M22 80h1v1h-1z"/><path fill="#212121" d="M23 80h1v1h-1zM39 80h1v1h-1z"/><path fill="#6D5741" d="M40 80h1v1h-1zM41 80h1v1h-1z"/><path fill="#212121" d="M42 80h1v1h-1z"/><path fill="#6D5741" d="M43 80h1v1h-1zM44 80h1v1h-1z"/><path fill="#825F3B" d="M45 80h1v1h-1zM46 80h1v1h-1z"/><path fill="#282828" d="M47 80h1v1h-1z"/><path fill="#BDBDBD" d="M48 80h1v1h-1z"/><path fill="#D0C2B3" d="M49 80h1v1h-1z"/><path fill="#FFD5D4" d="M50 80h1v1h-1zM51 80h1v1h-1z"/><path fill="#EEE" d="M52 80h1v1h-1zM53 80h1v1h-1z"/><path fill="#F5B1B0" d="M54 80h1v1h-1z"/><path fill="#212121" d="M55 80h1v1h-1zM70 80h1v1h-1z"/><path fill="#EEE" d="M71 80h1v1h-1zM72 80h1v1h-1zM73 80h1v1h-1zM74 80h1v1h-1z"/><path fill="#6D4C41" d="M75 80h1v1h-1zM76 80h1v1h-1z"/><path fill="#BDBDBD" d="M77 80h1v1h-1z"/><path fill="#282828" d="M78 80h1v1h-1z"/><path fill="#8D6E63" d="M79 80h1v1h-1zM80 80h1v1h-1zM81 80h1v1h-1zM82 80h1v1h-1z"/><path fill="#212121" d="M83 80h1v1h-1z"/><path fill="#785C53" d="M84 80h1v1h-1z"/><path fill="#8D6E63" d="M85 80h1v1h-1z"/><path fill="#212121" d="M86 80h1v1h-1zM7 81h1v1H7z"/><path fill="#AC8477" d="M8 81h1v1H8z"/><path fill="#E5D7D2" d="M9 81h1v1H9z"/><path fill="#A1705F" d="M10 81h1v1h-1z"/><path fill="#AC8477" d="M11 81h1v1h-1zM12 81h1v1h-1z"/><path fill="#E5D7D2" d="M13 81h1v1h-1zM14 81h1v1h-1z"/><path fill="#212121" d="M15 81h1v1h-1z"/><path fill="#D5BFB7" d="M16 81h1v1h-1zM17 81h1v1h-1zM18 81h1v1h-1zM19 81h1v1h-1zM20 81h1v1h-1z"/><path fill="#E5D7D2" d="M21 81h1v1h-1zM22 81h1v1h-1z"/><path fill="#212121" d="M23 81h1v1h-1zM39 81h1v1h-1z"/><path fill="#825F3B" d="M40 81h1v1h-1z"/><path fill="#6D5741" d="M41 81h1v1h-1z"/><path fill="#212121" d="M42 81h1v1h-1z"/><path fill="#825F3B" d="M43 81h1v1h-1z"/><path fill="#6D5741" d="M44 81h1v1h-1zM45 81h1v1h-1zM46 81h1v1h-1z"/><path fill="#212121" d="M47 81h1v1h-1z"/><path fill="#BDBDBD" d="M48 81h1v1h-1z"/><path fill="#EEE" d="M49 81h1v1h-1zM50 81h1v1h-1z"/><path fill="#FFD5D4" d="M51 81h1v1h-1zM52 81h1v1h-1z"/><path fill="#EEE" d="M53 81h1v1h-1z"/><path fill="#FFD5D4" d="M54 81h1v1h-1z"/><path fill="#212121" d="M55 81h1v1h-1zM70 81h1v1h-1z"/><path fill="#6D4C41" d="M71 81h1v1h-1z"/><path fill="#EEE" d="M72 81h1v1h-1z"/><path fill="#6D4C41" d="M73 81h1v1h-1zM74 81h1v1h-1z"/><path fill="#EEE" d="M75 81h1v1h-1zM76 81h1v1h-1z"/><path fill="#BDBDBD" d="M77 81h1v1h-1z"/><path fill="#212121" d="M78 81h1v1h-1z"/><path fill="#6D4C41" d="M79 81h1v1h-1z"/><path fill="#8D6E63" d="M80 81h1v1h-1zM81 81h1v1h-1z"/><path fill="#785C53" d="M82 81h1v1h-1z"/><path fill="#212121" d="M83 81h1v1h-1z"/><path fill="#785C53" d="M84 81h1v1h-1z"/><path fill="#8D6E63" d="M85 81h1v1h-1z"/><path fill="#212121" d="M86 81h1v1h-1zM6 82h1v1H6z"/><path fill="#AC8477" d="M7 82h1v1H7zM8 82h1v1H8z"/><path fill="#E5D7D2" d="M9 82h1v1H9zM10 82h1v1h-1z"/><path fill="#A1705F" d="M11 82h1v1h-1zM12 82h1v1h-1zM13 82h1v1h-1z"/><path fill="#212121" d="M14 82h1v1h-1z"/><path fill="#D5BFB7" d="M15 82h1v1h-1zM16 82h1v1h-1zM17 82h1v1h-1zM18 82h1v1h-1zM19 82h1v1h-1zM20 82h1v1h-1zM21 82h1v1h-1z"/><path fill="#E5D7D2" d="M22 82h1v1h-1z"/><path fill="#212121" d="M23 82h1v1h-1zM38 82h1v1h-1z"/><path fill="#6D5741" d="M39 82h1v1h-1zM40 82h1v1h-1z"/><path fill="#825F3B" d="M41 82h1v1h-1z"/><path fill="#212121" d="M42 82h1v1h-1z"/><path fill="#6D5741" d="M43 82h1v1h-1z"/><path fill="#825F3B" d="M44 82h1v1h-1z"/><path fill="#6D5741" d="M45 82h1v1h-1z"/><path fill="#212121" d="M46 82h1v1h-1z"/><path fill="#BDBDBD" d="M47 82h1v1h-1z"/><path fill="#EEE" d="M48 82h1v1h-1zM49 82h1v1h-1zM50 82h1v1h-1zM51 82h1v1h-1zM52 82h1v1h-1z"/><path fill="#FFD5D4" d="M53 82h1v1h-1z"/><path fill="#EEE" d="M54 82h1v1h-1z"/><path fill="#212121" d="M55 82h1v1h-1zM70 82h1v1h-1z"/><path fill="#6D4C41" d="M71 82h1v1h-1z"/><path fill="#EEE" d="M72 82h1v1h-1zM73 82h1v1h-1zM74 82h1v1h-1zM75 82h1v1h-1z"/><path fill="#6D4C41" d="M76 82h1v1h-1z"/><path fill="#EEE" d="M77 82h1v1h-1z"/><path fill="#BDBDBD" d="M78 82h1v1h-1z"/><path fill="#212121" d="M79 82h1v1h-1z"/><path fill="#6D4C41" d="M80 82h1v1h-1zM81 82h1v1h-1zM82 82h1v1h-1z"/><path fill="#212121" d="M83 82h1v1h-1z"/><path fill="#785C53" d="M84 82h1v1h-1z"/><path fill="#8D6E63" d="M85 82h1v1h-1zM86 82h1v1h-1z"/><path fill="#212121" d="M87 82h1v1h-1zM6 83h1v1H6z"/><path fill="#A1705F" d="M7 83h1v1H7z"/><path fill="#AC8477" d="M8 83h1v1H8zM9 83h1v1H9z"/><path fill="#212121" d="M10 83h1v1h-1zM11 83h1v1h-1zM12 83h1v1h-1zM13 83h1v1h-1z"/><path fill="#D5BFB7" d="M14 83h1v1h-1zM15 83h1v1h-1zM16 83h1v1h-1zM17 83h1v1h-1zM18 83h1v1h-1zM19 83h1v1h-1z"/><path fill="#E5D7D2" d="M20 83h1v1h-1zM21 83h1v1h-1z"/><path fill="#212121" d="M22 83h1v1h-1zM38 83h1v1h-1z"/><path fill="#6D5741" d="M39 83h1v1h-1z"/><path fill="#825F3B" d="M40 83h1v1h-1z"/><path fill="#6D5741" d="M41 83h1v1h-1z"/><path fill="#212121" d="M42 83h1v1h-1zM43 83h1v1h-1zM44 83h1v1h-1zM45 83h1v1h-1z"/><path fill="#825F3B" d="M46 83h1v1h-1z"/><path fill="#EEE" d="M47 83h1v1h-1zM48 83h1v1h-1zM49 83h1v1h-1zM50 83h1v1h-1zM51 83h1v1h-1zM52 83h1v1h-1zM53 83h1v1h-1z"/><path fill="#FFD5D4" d="M54 83h1v1h-1z"/><path fill="#212121" d="M55 83h1v1h-1zM70 83h1v1h-1z"/><path fill="#EEE" d="M71 83h1v1h-1zM72 83h1v1h-1z"/><path fill="#6D4C41" d="M73 83h1v1h-1z"/><path fill="#EEE" d="M74 83h1v1h-1z"/><path fill="#6D4C41" d="M75 83h1v1h-1z"/><path fill="#EEE" d="M76 83h1v1h-1zM77 83h1v1h-1zM78 83h1v1h-1z"/><path fill="#BDBDBD" d="M79 83h1v1h-1z"/><path fill="#212121" d="M80 83h1v1h-1zM81 83h1v1h-1zM82 83h1v1h-1zM83 83h1v1h-1z"/><path fill="#785C53" d="M84 83h1v1h-1zM85 83h1v1h-1z"/><path fill="#8D6E63" d="M86 83h1v1h-1z"/><path fill="#212121" d="M87 83h1v1h-1zM5 84h1v1H5z"/><path fill="#A1705F" d="M6 84h1v1H6z"/><path fill="#AC8477" d="M7 84h1v1H7zM8 84h1v1H8zM9 84h1v1H9zM10 84h1v1h-1z"/><path fill="#D5BFB7" d="M11 84h1v1h-1zM12 84h1v1h-1zM13 84h1v1h-1zM14 84h1v1h-1zM15 84h1v1h-1zM16 84h1v1h-1zM17 84h1v1h-1zM18 84h1v1h-1z"/><path fill="#E5D7D2" d="M19 84h1v1h-1z"/><path fill="#D5BFB7" d="M20 84h1v1h-1z"/><path fill="#E5D7D2" d="M21 84h1v1h-1z"/><path fill="#212121" d="M22 84h1v1h-1zM37 84h1v1h-1z"/><path fill="#6D5741" d="M38 84h1v1h-1zM39 84h1v1h-1z"/><path fill="#825F3B" d="M40 84h1v1h-1z"/><path fill="#6D5741" d="M41 84h1v1h-1z"/><path fill="#D0C2B3" d="M42 84h1v1h-1z"/><path fill="#EEE" d="M43 84h1v1h-1z"/><path fill="#D0C2B3" d="M44 84h1v1h-1z"/><path fill="#825F3B" d="M45 84h1v1h-1z"/><path fill="#EEE" d="M46 84h1v1h-1zM47 84h1v1h-1zM48 84h1v1h-1zM49 84h1v1h-1zM50 84h1v1h-1zM51 84h1v1h-1zM52 84h1v1h-1z"/><path fill="#FFD5D4" d="M53 84h1v1h-1z"/><path fill="#BDBDBD" d="M54 84h1v1h-1z"/><path fill="#212121" d="M55 84h1v1h-1zM70 84h1v1h-1z"/><path fill="#BDBDBD" d="M71 84h1v1h-1z"/><path fill="#6D4C41" d="M72 84h1v1h-1z"/><path fill="#EEE" d="M73 84h1v1h-1z"/><path fill="#6D4C41" d="M74 84h1v1h-1z"/><path fill="#EEE" d="M75 84h1v1h-1zM76 84h1v1h-1zM77 84h1v1h-1z"/><path fill="#6D4C41" d="M78 84h1v1h-1z"/><path fill="#EEE" d="M79 84h1v1h-1zM80 84h1v1h-1z"/><path fill="#6D4C41" d="M81 84h1v1h-1zM82 84h1v1h-1z"/><path fill="#EEE" d="M83 84h1v1h-1z"/><path fill="#6D4C41" d="M84 84h1v1h-1zM85 84h1v1h-1zM86 84h1v1h-1z"/><path fill="#8D6E63" d="M87 84h1v1h-1z"/><path fill="#212121" d="M88 84h1v1h-1zM5 85h1v1H5z"/><path fill="#AC8477" d="M6 85h1v1H6zM7 85h1v1H7zM8 85h1v1H8zM9 85h1v1H9z"/><path fill="#A1705F" d="M10 85h1v1h-1z"/><path fill="#D5BFB7" d="M11 85h1v1h-1zM12 85h1v1h-1zM13 85h1v1h-1zM14 85h1v1h-1zM15 85h1v1h-1zM16 85h1v1h-1z"/><path fill="#E5D7D2" d="M17 85h1v1h-1zM18 85h1v1h-1z"/><path fill="#D5BFB7" d="M19 85h1v1h-1z"/><path fill="#E5D7D2" d="M20 85h1v1h-1z"/><path fill="#212121" d="M21 85h1v1h-1zM37 85h1v1h-1z"/><path fill="#6D5741" d="M38 85h1v1h-1z"/><path fill="#825F3B" d="M39 85h1v1h-1z"/><path fill="#EEE" d="M40 85h1v1h-1z"/><path fill="#D0C2B3" d="M41 85h1v1h-1z"/><path fill="#825F3B" d="M42 85h1v1h-1z"/><path fill="#D0C2B3" d="M43 85h1v1h-1z"/><path fill="#EEE" d="M44 85h1v1h-1zM45 85h1v1h-1zM46 85h1v1h-1zM47 85h1v1h-1zM48 85h1v1h-1zM49 85h1v1h-1zM50 85h1v1h-1zM51 85h1v1h-1zM52 85h1v1h-1z"/><path fill="#BDBDBD" d="M53 85h1v1h-1z"/><path fill="#212121" d="M54 85h1v1h-1zM71 85h1v1h-1z"/><path fill="#BDBDBD" d="M72 85h1v1h-1z"/><path fill="#EEE" d="M73 85h1v1h-1zM74 85h1v1h-1zM75 85h1v1h-1zM76 85h1v1h-1z"/><path fill="#6D4C41" d="M77 85h1v1h-1zM78 85h1v1h-1z"/><path fill="#EEE" d="M79 85h1v1h-1z"/><path fill="#6D4C41" d="M80 85h1v1h-1z"/><path fill="#EEE" d="M81 85h1v1h-1zM82 85h1v1h-1zM83 85h1v1h-1zM84 85h1v1h-1zM85 85h1v1h-1z"/><path fill="#6D4C41" d="M86 85h1v1h-1zM87 85h1v1h-1z"/><path fill="#212121" d="M88 85h1v1h-1zM4 86h1v1H4z"/><path fill="#AC8477" d="M5 86h1v1H5z"/><path fill="#E5D7D2" d="M6 86h1v1H6zM7 86h1v1H7z"/><path fill="#A1705F" d="M8 86h1v1H8zM9 86h1v1H9z"/><path fill="#D5BFB7" d="M10 86h1v1h-1zM11 86h1v1h-1zM12 86h1v1h-1zM13 86h1v1h-1z"/><path fill="#E5D7D2" d="M14 86h1v1h-1z"/><path fill="#D5BFB7" d="M15 86h1v1h-1z"/><path fill="#E5D7D2" d="M16 86h1v1h-1z"/><path fill="#D5BFB7" d="M17 86h1v1h-1z"/><path fill="#E5D7D2" d="M18 86h1v1h-1zM19 86h1v1h-1z"/><path fill="#212121" d="M20 86h1v1h-1zM36 86h1v1h-1z"/><path fill="#6D5741" d="M37 86h1v1h-1z"/><path fill="#825F3B" d="M38 86h1v1h-1z"/><path fill="#EEE" d="M39 86h1v1h-1z"/><path fill="#D0C2B3" d="M40 86h1v1h-1z"/><path fill="#BDBDBD" d="M41 86h1v1h-1zM42 86h1v1h-1z"/><path fill="#825F3B" d="M43 86h1v1h-1z"/><path fill="#EEE" d="M44 86h1v1h-1zM45 86h1v1h-1zM46 86h1v1h-1zM47 86h1v1h-1zM48 86h1v1h-1zM49 86h1v1h-1zM50 86h1v1h-1zM51 86h1v1h-1z"/><path fill="#BDBDBD" d="M52 86h1v1h-1z"/><path fill="#212121" d="M53 86h1v1h-1zM72 86h1v1h-1z"/><path fill="#BDBDBD" d="M73 86h1v1h-1z"/><path fill="#EEE" d="M74 86h1v1h-1z"/><path fill="#785C53" d="M75 86h1v1h-1z"/><path fill="#6D4C41" d="M76 86h1v1h-1z"/><path fill="#EEE" d="M77 86h1v1h-1zM78 86h1v1h-1zM79 86h1v1h-1z"/><path fill="#6D4C41" d="M80 86h1v1h-1z"/><path fill="#EEE" d="M81 86h1v1h-1z"/><path fill="#BDBDBD" d="M82 86h1v1h-1zM83 86h1v1h-1zM84 86h1v1h-1z"/><path fill="#EEE" d="M85 86h1v1h-1zM86 86h1v1h-1z"/><path fill="#6D4C41" d="M87 86h1v1h-1z"/><path fill="#8D6E63" d="M88 86h1v1h-1z"/><path fill="#212121" d="M89 86h1v1h-1zM3 87h1v1H3z"/><path fill="#424242" d="M4 87h1v1H4z"/><path fill="#E5D7D2" d="M5 87h1v1H5z"/><path fill="#A1705F" d="M6 87h1v1H6zM7 87h1v1H7zM8 87h1v1H8z"/><path fill="#212121" d="M9 87h1v1H9zM10 87h1v1h-1z"/><path fill="#E5D7D2" d="M11 87h1v1h-1zM12 87h1v1h-1zM13 87h1v1h-1zM14 87h1v1h-1zM15 87h1v1h-1zM16 87h1v1h-1zM17 87h1v1h-1zM18 87h1v1h-1z"/><path fill="#212121" d="M19 87h1v1h-1zM35 87h1v1h-1z"/><path fill="#6D5741" d="M36 87h1v1h-1z"/><path fill="#825F3B" d="M37 87h1v1h-1zM38 87h1v1h-1z"/><path fill="#BDBDBD" d="M39 87h1v1h-1z"/><path fill="#282828" d="M40 87h1v1h-1z"/><path fill="#212121" d="M41 87h1v1h-1zM42 87h1v1h-1z"/><path fill="#BDBDBD" d="M43 87h1v1h-1zM44 87h1v1h-1zM45 87h1v1h-1zM46 87h1v1h-1zM47 87h1v1h-1zM48 87h1v1h-1zM49 87h1v1h-1zM50 87h1v1h-1zM51 87h1v1h-1z"/><path fill="#212121" d="M52 87h1v1h-1zM73 87h1v1h-1z"/><path fill="#BDBDBD" d="M74 87h1v1h-1zM75 87h1v1h-1zM76 87h1v1h-1zM77 87h1v1h-1zM78 87h1v1h-1zM79 87h1v1h-1zM80 87h1v1h-1zM81 87h1v1h-1zM82 87h1v1h-1z"/><path fill="#212121" d="M83 87h1v1h-1zM84 87h1v1h-1z"/><path fill="#282828" d="M85 87h1v1h-1z"/><path fill="#BDBDBD" d="M86 87h1v1h-1zM87 87h1v1h-1z"/><path fill="#6D4C41" d="M88 87h1v1h-1zM89 87h1v1h-1z"/><path fill="#212121" d="M90 87h1v1h-1zM4 88h1v1H4zM5 88h1v1H5zM6 88h1v1H6zM7 88h1v1H7zM8 88h1v1H8zM11 88h1v1h-1zM12 88h1v1h-1zM13 88h1v1h-1zM14 88h1v1h-1zM15 88h1v1h-1zM16 88h1v1h-1zM17 88h1v1h-1zM18 88h1v1h-1zM35 88h1v1h-1zM36 88h1v1h-1zM37 88h1v1h-1zM38 88h1v1h-1zM39 88h1v1h-1zM40 88h1v1h-1zM43 88h1v1h-1zM44 88h1v1h-1z"/><path fill="#BDBDBD" d="M45 88h1v1h-1zM46 88h1v1h-1z"/><path fill="#212121" d="M47 88h1v1h-1zM48 88h1v1h-1zM49 88h1v1h-1zM50 88h1v1h-1zM51 88h1v1h-1zM74 88h1v1h-1zM75 88h1v1h-1zM76 88h1v1h-1zM77 88h1v1h-1zM78 88h1v1h-1z"/><path fill="#BDBDBD" d="M79 88h1v1h-1zM80 88h1v1h-1z"/><path fill="#212121" d="M81 88h1v1h-1zM82 88h1v1h-1zM85 88h1v1h-1zM86 88h1v1h-1zM87 88h1v1h-1zM88 88h1v1h-1zM89 88h1v1h-1zM90 88h1v1h-1zM14 89h1v1h-1z"/><path fill="#FFAD91" d="M15 89h1v1h-1z"/><path fill="#212121" d="M16 89h1v1h-1z"/><path fill="#FFAD91" d="M17 89h1v1h-1z"/><path fill="#212121" d="M18 89h1v1h-1zM45 89h1v1h-1zM46 89h1v1h-1z"/><path fill="#FFAD91" d="M47 89h1v1h-1z"/><path fill="#212121" d="M48 89h1v1h-1z"/><path fill="#FFAD91" d="M49 89h1v1h-1z"/><path fill="#212121" d="M50 89h1v1h-1zM75 89h1v1h-1z"/><path fill="#FFAD91" d="M76 89h1v1h-1z"/><path fill="#212121" d="M77 89h1v1h-1z"/><path fill="#FFAD91" d="M78 89h1v1h-1z"/><path fill="#212121" d="M79 89h1v1h-1zM80 89h1v1h-1zM14 90h1v1h-1z"/><path fill="#FFAD91" d="M15 90h1v1h-1z"/><path fill="#212121" d="M16 90h1v1h-1z"/><path fill="#FFAD91" d="M17 90h1v1h-1z"/><path fill="#212121" d="M18 90h1v1h-1zM46 90h1v1h-1z"/><path fill="#FFAD91" d="M47 90h1v1h-1z"/><path fill="#212121" d="M48 90h1v1h-1z"/><path fill="#FFAD91" d="M49 90h1v1h-1z"/><path fill="#212121" d="M50 90h1v1h-1zM75 90h1v1h-1z"/><path fill="#FFAD91" d="M76 90h1v1h-1z"/><path fill="#212121" d="M77 90h1v1h-1z"/><path fill="#FFAD91" d="M78 90h1v1h-1z"/><path fill="#212121" d="M79 90h1v1h-1zM14 91h1v1h-1zM15 91h1v1h-1zM16 91h1v1h-1zM17 91h1v1h-1zM18 91h1v1h-1zM19 91h1v1h-1zM46 91h1v1h-1zM47 91h1v1h-1zM48 91h1v1h-1zM49 91h1v1h-1zM50 91h1v1h-1zM51 91h1v1h-1zM74 91h1v1h-1zM75 91h1v1h-1zM76 91h1v1h-1zM77 91h1v1h-1zM78 91h1v1h-1zM79 91h1v1h-1z"/></svg>