<svg xmlns="http://www.w3.org/2000/svg" shape-rendering="crispEdges" viewBox="0 0 15 16"><path d="M1 1h1v1H1zM2 1h1v1H2zM3 1h1v1H3zM4 1h1v1H4zM5 1h1v1H5zM6 1h1v1H6zM7 1h1v1H7zM8 1h1v1H8zM9 1h1v1H9zM10 1h1v1h-1zM11 1h1v1h-1zM12 1h1v1h-1zM13 1h1v1h-1zM1 2h1v1H1zM3 2h1v1H3zM5 2h1v1H5zM7 2h1v1H7zM9 2h1v1H9zM11 2h1v1h-1zM13 2h1v1h-1zM1 3h1v1H1zM2 3h1v1H2zM3 3h1v1H3zM4 3h1v1H4zM5 3h1v1H5zM6 3h1v1H6zM7 3h1v1H7zM8 3h1v1H8zM9 3h1v1H9zM10 3h1v1h-1zM11 3h1v1h-1zM12 3h1v1h-1zM13 3h1v1h-1zM1 4h1v1H1zM13 4h1v1h-1zM1 5h1v1H1zM4 5h1v1H4zM5 5h1v1H5zM8 5h1v1H8zM9 5h1v1H9zM10 5h1v1h-1zM13 5h1v1h-1zM1 6h1v1H1zM3 6h1v1H3zM6 6h1v1H6zM8 6h1v1H8zM11 6h1v1h-1zM13 6h1v1h-1zM1 7h1v1H1zM3 7h1v1H3zM6 7h1v1H6zM8 7h1v1H8zM11 7h1v1h-1zM13 7h1v1h-1zM1 8h1v1H1zM3 8h1v1H3zM4 8h1v1H4zM5 8h1v1H5zM6 8h1v1H6zM8 8h1v1H8zM11 8h1v1h-1zM13 8h1v1h-1zM1 9h1v1H1zM3 9h1v1H3zM6 9h1v1H6zM8 9h1v1H8zM11 9h1v1h-1zM13 9h1v1h-1zM1 10h1v1H1zM3 10h1v1H3zM6 10h1v1H6zM8 10h1v1H8zM9 10h1v1H9zM10 10h1v1h-1zM13 10h1v1h-1zM1 11h1v1H1zM13 11h1v1h-1zM1 12h1v1H1zM2 12h1v1H2zM3 12h1v1H3zM4 12h1v1H4zM5 12h1v1H5zM6 12h1v1H6zM7 12h1v1H7zM8 12h1v1H8zM9 12h1v1H9zM10 12h1v1h-1zM11 12h1v1h-1zM12 12h1v1h-1zM13 12h1v1h-1zM1 13h1v1H1zM3 13h1v1H3zM5 13h1v1H5zM7 13h1v1H7zM9 13h1v1H9zM11 13h1v1h-1zM13 13h1v1h-1zM1 14h1v1H1zM2 14h1v1H2zM3 14h1v1H3zM4 14h1v1H4zM5 14h1v1H5zM6 14h1v1H6zM7 14h1v1H7zM8 14h1v1H8zM9 14h1v1H9zM10 14h1v1h-1zM11 14h1v1h-1zM12 14h1v1h-1zM13 14h1v1h-1z"/></svg>