<svg xmlns="http://www.w3.org/2000/svg" shape-rendering="crispEdges" viewBox="0 0 16 16"><path fill="#212625" d="M7 0h1v1H7zM8 0h1v1H8zM6 1h1v1H6zM7 1h1v1H7zM8 1h1v1H8zM5 2h1v1H5zM6 2h1v1H6zM7 2h1v1H7zM4 3h1v1H4zM5 3h1v1H5zM6 3h1v1H6zM3 4h1v1H3zM4 4h1v1H4zM5 4h1v1H5zM2 5h1v1H2zM3 5h1v1H3zM4 5h1v1H4zM1 6h1v1H1zM2 6h1v1H2zM3 6h1v1H3zM0 7h1v1H0zM1 7h1v1H1zM2 7h1v1H2zM3 7h1v1H3zM4 7h1v1H4zM5 7h1v1H5zM6 7h1v1H6zM7 7h1v1H7zM8 7h1v1H8zM9 7h1v1H9zM10 7h1v1h-1zM11 7h1v1h-1zM12 7h1v1h-1zM13 7h1v1h-1zM14 7h1v1h-1zM15 7h1v1h-1zM0 8h1v1H0zM1 8h1v1H1zM2 8h1v1H2zM3 8h1v1H3zM4 8h1v1H4zM5 8h1v1H5zM6 8h1v1H6zM7 8h1v1H7zM8 8h1v1H8zM9 8h1v1H9zM10 8h1v1h-1zM11 8h1v1h-1zM12 8h1v1h-1zM13 8h1v1h-1zM14 8h1v1h-1zM15 8h1v1h-1zM1 9h1v1H1zM2 9h1v1H2zM3 9h1v1H3zM2 10h1v1H2zM3 10h1v1H3zM4 10h1v1H4zM3 11h1v1H3zM4 11h1v1H4zM5 11h1v1H5zM4 12h1v1H4zM5 12h1v1H5zM6 12h1v1H6zM5 13h1v1H5zM6 13h1v1H6zM7 13h1v1H7zM6 14h1v1H6zM7 14h1v1H7zM8 14h1v1H8zM7 15h1v1H7zM8 15h1v1H8z"/></svg>