<svg xmlns="http://www.w3.org/2000/svg" shape-rendering="crispEdges" viewBox="0 0 14 15"><path fill="#EEC027" d="M5 0h1v1H5zM6 0h1v1H6zM7 0h1v1H7z"/><path fill="#A8871B" d="M8 0h1v1H8z"/><path fill="#EEC027" d="M3 1h1v1H3zM4 1h1v1H4zM5 1h1v1H5zM6 1h1v1H6zM7 1h1v1H7zM8 1h1v1H8zM9 1h1v1H9z"/><path fill="#A8871B" d="M10 1h1v1h-1z"/><path fill="#EEC027" d="M2 2h1v1H2zM3 2h1v1H3zM4 2h1v1H4zM5 2h1v1H5z"/><path fill="#A8871B" d="M6 2h1v1H6z"/><path fill="#EEC027" d="M7 2h1v1H7zM8 2h1v1H8zM9 2h1v1H9zM10 2h1v1h-1z"/><path fill="#A8871B" d="M11 2h1v1h-1z"/><path fill="#EEC027" d="M1 3h1v1H1zM2 3h1v1H2zM3 3h1v1H3zM4 3h1v1H4z"/><path fill="#A8871B" d="M5 3h1v1H5zM6 3h1v1H6zM7 3h1v1H7z"/><path fill="#EEC027" d="M8 3h1v1H8zM9 3h1v1H9zM10 3h1v1h-1zM11 3h1v1h-1z"/><path fill="#A8871B" d="M12 3h1v1h-1z"/><path fill="#EEC027" d="M0 4h1v1H0zM1 4h1v1H1zM2 4h1v1H2zM3 4h1v1H3z"/><path fill="#A8871B" d="M4 4h1v1H4z"/><path fill="#EEC027" d="M5 4h1v1H5z"/><path fill="#A8871B" d="M6 4h1v1H6z"/><path fill="#EEC027" d="M7 4h1v1H7z"/><path fill="#A8871B" d="M8 4h1v1H8z"/><path fill="#EEC027" d="M9 4h1v1H9zM10 4h1v1h-1zM11 4h1v1h-1zM12 4h1v1h-1z"/><path fill="#A8871B" d="M13 4h1v1h-1z"/><path fill="#EEC027" d="M0 5h1v1H0zM1 5h1v1H1zM2 5h1v1H2z"/><path fill="#A8871B" d="M3 5h1v1H3z"/><path fill="#EEC027" d="M4 5h1v1H4zM5 5h1v1H5z"/><path fill="#A8871B" d="M6 5h1v1H6z"/><path fill="#EEC027" d="M7 5h1v1H7zM8 5h1v1H8z"/><path fill="#A8871B" d="M9 5h1v1H9z"/><path fill="#EEC027" d="M10 5h1v1h-1zM11 5h1v1h-1zM12 5h1v1h-1z"/><path fill="#A8871B" d="M13 5h1v1h-1z"/><path fill="#EEC027" d="M0 6h1v1H0zM1 6h1v1H1zM2 6h1v1H2zM3 6h1v1H3z"/><path fill="#A8871B" d="M4 6h1v1H4z"/><path fill="#EEC027" d="M5 6h1v1H5z"/><path fill="#A8871B" d="M6 6h1v1H6z"/><path fill="#EEC027" d="M7 6h1v1H7zM8 6h1v1H8zM9 6h1v1H9zM10 6h1v1h-1zM11 6h1v1h-1zM12 6h1v1h-1z"/><path fill="#A8871B" d="M13 6h1v1h-1z"/><path fill="#EEC027" d="M0 7h1v1H0zM1 7h1v1H1zM2 7h1v1H2zM3 7h1v1H3zM4 7h1v1H4z"/><path fill="#A8871B" d="M5 7h1v1H5zM6 7h1v1H6zM7 7h1v1H7z"/><path fill="#EEC027" d="M8 7h1v1H8zM9 7h1v1H9zM10 7h1v1h-1zM11 7h1v1h-1zM12 7h1v1h-1z"/><path fill="#A8871B" d="M13 7h1v1h-1z"/><path fill="#EEC027" d="M0 8h1v1H0zM1 8h1v1H1zM2 8h1v1H2zM3 8h1v1H3zM4 8h1v1H4zM5 8h1v1H5z"/><path fill="#A8871B" d="M6 8h1v1H6z"/><path fill="#EEC027" d="M7 8h1v1H7z"/><path fill="#A8871B" d="M8 8h1v1H8z"/><path fill="#EEC027" d="M9 8h1v1H9zM10 8h1v1h-1zM11 8h1v1h-1zM12 8h1v1h-1z"/><path fill="#A8871B" d="M13 8h1v1h-1z"/><path fill="#EEC027" d="M0 9h1v1H0zM1 9h1v1H1zM2 9h1v1H2z"/><path fill="#A8871B" d="M3 9h1v1H3z"/><path fill="#EEC027" d="M4 9h1v1H4zM5 9h1v1H5z"/><path fill="#A8871B" d="M6 9h1v1H6z"/><path fill="#EEC027" d="M7 9h1v1H7zM8 9h1v1H8z"/><path fill="#A8871B" d="M9 9h1v1H9z"/><path fill="#EEC027" d="M10 9h1v1h-1zM11 9h1v1h-1zM12 9h1v1h-1z"/><path fill="#A8871B" d="M13 9h1v1h-1z"/><path fill="#EEC027" d="M0 10h1v1H0zM1 10h1v1H1zM2 10h1v1H2zM3 10h1v1H3z"/><path fill="#A8871B" d="M4 10h1v1H4z"/><path fill="#EEC027" d="M5 10h1v1H5z"/><path fill="#A8871B" d="M6 10h1v1H6z"/><path fill="#EEC027" d="M7 10h1v1H7z"/><path fill="#A8871B" d="M8 10h1v1H8z"/><path fill="#EEC027" d="M9 10h1v1H9zM10 10h1v1h-1zM11 10h1v1h-1zM12 10h1v1h-1z"/><path fill="#A8871B" d="M13 10h1v1h-1z"/><path fill="#EEC027" d="M1 11h1v1H1zM2 11h1v1H2zM3 11h1v1H3zM4 11h1v1H4z"/><path fill="#A8871B" d="M5 11h1v1H5zM6 11h1v1H6zM7 11h1v1H7z"/><path fill="#EEC027" d="M8 11h1v1H8zM9 11h1v1H9zM10 11h1v1h-1zM11 11h1v1h-1z"/><path fill="#A8871B" d="M12 11h1v1h-1z"/><path fill="#EEC027" d="M2 12h1v1H2zM3 12h1v1H3zM4 12h1v1H4zM5 12h1v1H5z"/><path fill="#A8871B" d="M6 12h1v1H6z"/><path fill="#EEC027" d="M7 12h1v1H7zM8 12h1v1H8zM9 12h1v1H9zM10 12h1v1h-1z"/><path fill="#A8871B" d="M11 12h1v1h-1z"/><path fill="#EEC027" d="M3 13h1v1H3zM4 13h1v1H4zM5 13h1v1H5zM6 13h1v1H6zM7 13h1v1H7zM8 13h1v1H8zM9 13h1v1H9z"/><path fill="#A8871B" d="M10 13h1v1h-1z"/><path fill="#EEC027" d="M5 14h1v1H5zM6 14h1v1H6zM7 14h1v1H7z"/><path fill="#A8871B" d="M8 14h1v1H8z"/></svg>