<svg xmlns="http://www.w3.org/2000/svg" shape-rendering="crispEdges" viewBox="0 0 17 17"><path d="M8 1h1v1H8zM7 2h1v1H7z"/><path fill="#9B9B9B" d="M8 2h1v1H8z"/><path d="M9 2h1v1H9zM6 3h1v1H6z"/><path fill="#9B9B9B" d="M7 3h1v1H7zM8 3h1v1H8zM9 3h1v1H9z"/><path d="M10 3h1v1h-1zM6 4h1v1H6z"/><path fill="#A8A8A8" d="M7 4h1v1H7z"/><path fill="#9B9B9B" d="M8 4h1v1H8zM9 4h1v1H9z"/><path d="M10 4h1v1h-1zM2 5h1v1H2zM3 5h1v1H3zM4 5h1v1H4zM5 5h1v1H5z"/><path fill="#A8A8A8" d="M6 5h1v1H6z"/><path fill="#9B9B9B" d="M7 5h1v1H7zM8 5h1v1H8zM9 5h1v1H9zM10 5h1v1h-1z"/><path d="M11 5h1v1h-1zM12 5h1v1h-1zM13 5h1v1h-1zM14 5h1v1h-1zM1 6h1v1H1z"/><path fill="#9B9B9B" d="M2 6h1v1H2zM3 6h1v1H3zM4 6h1v1H4z"/><path fill="#A8A8A8" d="M5 6h1v1H5z"/><path fill="#9B9B9B" d="M6 6h1v1H6zM7 6h1v1H7zM8 6h1v1H8zM9 6h1v1H9zM10 6h1v1h-1zM11 6h1v1h-1zM12 6h1v1h-1zM13 6h1v1h-1zM14 6h1v1h-1z"/><path d="M15 6h1v1h-1zM2 7h1v1H2z"/><path fill="#9B9B9B" d="M3 7h1v1H3zM4 7h1v1H4zM5 7h1v1H5zM6 7h1v1H6zM7 7h1v1H7zM8 7h1v1H8zM9 7h1v1H9zM10 7h1v1h-1zM11 7h1v1h-1zM12 7h1v1h-1zM13 7h1v1h-1z"/><path d="M14 7h1v1h-1zM3 8h1v1H3z"/><path fill="#9B9B9B" d="M4 8h1v1H4zM5 8h1v1H5zM6 8h1v1H6zM7 8h1v1H7zM8 8h1v1H8zM9 8h1v1H9zM10 8h1v1h-1zM11 8h1v1h-1zM12 8h1v1h-1z"/><path d="M13 8h1v1h-1zM4 9h1v1H4z"/><path fill="#9B9B9B" d="M5 9h1v1H5zM6 9h1v1H6zM7 9h1v1H7zM8 9h1v1H8zM9 9h1v1H9zM10 9h1v1h-1zM11 9h1v1h-1z"/><path d="M12 9h1v1h-1zM4 10h1v1H4z"/><path fill="#9B9B9B" d="M5 10h1v1H5zM6 10h1v1H6zM7 10h1v1H7zM8 10h1v1H8zM9 10h1v1H9zM10 10h1v1h-1zM11 10h1v1h-1z"/><path d="M12 10h1v1h-1zM3 11h1v1H3z"/><path fill="#9B9B9B" d="M4 11h1v1H4zM5 11h1v1H5zM6 11h1v1H6zM7 11h1v1H7zM8 11h1v1H8zM9 11h1v1H9zM10 11h1v1h-1zM11 11h1v1h-1zM12 11h1v1h-1z"/><path d="M13 11h1v1h-1zM3 12h1v1H3z"/><path fill="#9B9B9B" d="M4 12h1v1H4zM5 12h1v1H5zM6 12h1v1H6z"/><path d="M7 12h1v1H7zM8 12h1v1H8zM9 12h1v1H9z"/><path fill="#9B9B9B" d="M10 12h1v1h-1zM11 12h1v1h-1zM12 12h1v1h-1z"/><path d="M13 12h1v1h-1zM3 13h1v1H3z"/><path fill="#9B9B9B" d="M4 13h1v1H4zM5 13h1v1H5z"/><path d="M6 13h1v1H6zM10 13h1v1h-1z"/><path fill="#9B9B9B" d="M11 13h1v1h-1zM12 13h1v1h-1z"/><path d="M13 13h1v1h-1zM3 14h1v1H3z"/><path fill="#9B9B9B" d="M4 14h1v1H4z"/><path d="M5 14h1v1H5zM11 14h1v1h-1z"/><path fill="#9B9B9B" d="M12 14h1v1h-1z"/><path d="M13 14h1v1h-1zM3 15h1v1H3zM4 15h1v1H4zM12 15h1v1h-1zM13 15h1v1h-1z"/></svg>