<svg xmlns="http://www.w3.org/2000/svg" shape-rendering="crispEdges" viewBox="0 0 16 14"><path fill="#B80D0D" d="M2 0h1v1H2zM3 0h1v1H3zM4 0h1v1H4z"/><path fill="#940A0A" d="M5 0h1v1H5z"/><path fill="#B80D0D" d="M9 0h1v1H9zM10 0h1v1h-1zM11 0h1v1h-1zM12 0h1v1h-1z"/><path fill="#940A0A" d="M13 0h1v1h-1z"/><path fill="#B80D0D" d="M1 1h1v1H1zM2 1h1v1H2zM3 1h1v1H3zM4 1h1v1H4zM5 1h1v1H5z"/><path fill="#940A0A" d="M6 1h1v1H6z"/><path fill="#B80D0D" d="M8 1h1v1H8zM9 1h1v1H9zM10 1h1v1h-1zM11 1h1v1h-1zM12 1h1v1h-1zM13 1h1v1h-1z"/><path fill="#940A0A" d="M14 1h1v1h-1z"/><path fill="#B80D0D" d="M0 2h1v1H0zM1 2h1v1H1zM2 2h1v1H2zM3 2h1v1H3zM4 2h1v1H4zM5 2h1v1H5zM6 2h1v1H6z"/><path fill="#940A0A" d="M7 2h1v1H7z"/><path fill="#B80D0D" d="M8 2h1v1H8zM9 2h1v1H9zM10 2h1v1h-1zM11 2h1v1h-1zM12 2h1v1h-1zM13 2h1v1h-1zM14 2h1v1h-1z"/><path fill="#940A0A" d="M15 2h1v1h-1z"/><path fill="#B80D0D" d="M0 3h1v1H0zM1 3h1v1H1zM2 3h1v1H2zM3 3h1v1H3zM4 3h1v1H4zM5 3h1v1H5zM6 3h1v1H6zM7 3h1v1H7zM8 3h1v1H8zM9 3h1v1H9zM10 3h1v1h-1zM11 3h1v1h-1zM12 3h1v1h-1zM13 3h1v1h-1zM14 3h1v1h-1z"/><path fill="#940A0A" d="M15 3h1v1h-1z"/><path fill="#B80D0D" d="M0 4h1v1H0zM1 4h1v1H1zM2 4h1v1H2zM3 4h1v1H3zM4 4h1v1H4zM5 4h1v1H5zM6 4h1v1H6zM7 4h1v1H7zM8 4h1v1H8zM9 4h1v1H9zM10 4h1v1h-1zM11 4h1v1h-1zM12 4h1v1h-1zM13 4h1v1h-1zM14 4h1v1h-1z"/><path fill="#940A0A" d="M15 4h1v1h-1z"/><path fill="#B80D0D" d="M0 5h1v1H0zM1 5h1v1H1zM2 5h1v1H2zM3 5h1v1H3zM4 5h1v1H4zM5 5h1v1H5zM6 5h1v1H6zM7 5h1v1H7zM8 5h1v1H8zM9 5h1v1H9zM10 5h1v1h-1zM11 5h1v1h-1zM12 5h1v1h-1zM13 5h1v1h-1zM14 5h1v1h-1z"/><path fill="#940A0A" d="M15 5h1v1h-1z"/><path fill="#B80D0D" d="M0 6h1v1H0zM1 6h1v1H1zM2 6h1v1H2zM3 6h1v1H3zM4 6h1v1H4zM5 6h1v1H5zM6 6h1v1H6zM7 6h1v1H7zM8 6h1v1H8zM9 6h1v1H9zM10 6h1v1h-1zM11 6h1v1h-1zM12 6h1v1h-1zM13 6h1v1h-1zM14 6h1v1h-1z"/><path fill="#940A0A" d="M15 6h1v1h-1z"/><path fill="#B80D0D" d="M1 7h1v1H1zM2 7h1v1H2zM3 7h1v1H3zM4 7h1v1H4zM5 7h1v1H5zM6 7h1v1H6zM7 7h1v1H7zM8 7h1v1H8zM9 7h1v1H9zM10 7h1v1h-1zM11 7h1v1h-1zM12 7h1v1h-1zM13 7h1v1h-1z"/><path fill="#940A0A" d="M14 7h1v1h-1z"/><path fill="#B80D0D" d="M2 8h1v1H2zM3 8h1v1H3zM4 8h1v1H4zM5 8h1v1H5zM6 8h1v1H6zM7 8h1v1H7zM8 8h1v1H8zM9 8h1v1H9zM10 8h1v1h-1zM11 8h1v1h-1zM12 8h1v1h-1z"/><path fill="#940A0A" d="M13 8h1v1h-1z"/><path fill="#B80D0D" d="M3 9h1v1H3zM4 9h1v1H4zM5 9h1v1H5zM6 9h1v1H6zM7 9h1v1H7zM8 9h1v1H8zM9 9h1v1H9zM10 9h1v1h-1zM11 9h1v1h-1z"/><path fill="#940A0A" d="M12 9h1v1h-1z"/><path fill="#B80D0D" d="M4 10h1v1H4zM5 10h1v1H5zM6 10h1v1H6zM7 10h1v1H7zM8 10h1v1H8zM9 10h1v1H9zM10 10h1v1h-1z"/><path fill="#940A0A" d="M11 10h1v1h-1z"/><path fill="#B80D0D" d="M5 11h1v1H5zM6 11h1v1H6zM7 11h1v1H7zM8 11h1v1H8zM9 11h1v1H9z"/><path fill="#940A0A" d="M10 11h1v1h-1z"/><path fill="#B80D0D" d="M6 12h1v1H6zM7 12h1v1H7zM8 12h1v1H8z"/><path fill="#940A0A" d="M9 12h1v1H9z"/><path fill="#B80D0D" d="M7 13h1v1H7z"/><path fill="#940A0A" d="M8 13h1v1H8z"/></svg>