<?xml version="1.0" encoding="UTF-8" ?>
<svg version="1.1" width="32" height="30" viewBox="0 0 32 30" xmlns="http://www.w3.org/2000/svg" shape-rendering="crispEdges">
<rect x="12" y="0" width="2" height="2" fill="#FFFFFF" />
<rect x="14" y="0" width="2" height="2" fill="#FFFFFF" />
<rect x="16" y="0" width="2" height="2" fill="#FFFFFF" />
<rect x="18" y="0" width="2" height="2" fill="#FFFFFF" />
<rect x="8" y="2" width="2" height="2" fill="#FFFFFF" />
<rect x="10" y="2" width="2" height="2" fill="#FFFFFF" />
<rect x="20" y="2" width="2" height="2" fill="#FFFFFF" />
<rect x="22" y="2" width="2" height="2" fill="#FFFFFF" />
<rect x="6" y="4" width="2" height="2" fill="#FFFFFF" />
<rect x="8" y="4" width="2" height="2" fill="#FFFFFF" />
<rect x="22" y="4" width="2" height="2" fill="#FFFFFF" />
<rect x="24" y="4" width="2" height="2" fill="#FFFFFF" />
<rect x="6" y="6" width="2" height="2" fill="#FFFFFF" />
<rect x="18" y="6" width="2" height="2" fill="#FFFFFF" />
<rect x="24" y="6" width="2" height="2" fill="#FFFFFF" />
<rect x="4" y="8" width="2" height="2" fill="#FFFFFF" />
<rect x="20" y="8" width="2" height="2" fill="#FFFFFF" />
<rect x="26" y="8" width="2" height="2" fill="#FFFFFF" />
<rect x="4" y="10" width="2" height="2" fill="#FFFFFF" />
<rect x="26" y="10" width="2" height="2" fill="#FFFFFF" />
<rect x="4" y="12" width="2" height="2" fill="#FFFFFF" />
<rect x="26" y="12" width="2" height="2" fill="#FFFFFF" />
<rect x="4" y="14" width="2" height="2" fill="#FFFFFF" />
<rect x="26" y="14" width="2" height="2" fill="#FFFFFF" />
<rect x="6" y="16" width="2" height="2" fill="#FFFFFF" />
<rect x="24" y="16" width="2" height="2" fill="#FFFFFF" />
<rect x="6" y="18" width="2" height="2" fill="#FFFFFF" />
<rect x="8" y="18" width="2" height="2" fill="#FFFFFF" />
<rect x="22" y="18" width="2" height="2" fill="#FFFFFF" />
<rect x="24" y="18" width="2" height="2" fill="#FFFFFF" />
<rect x="8" y="20" width="2" height="2" fill="#FFFFFF" />
<rect x="10" y="20" width="2" height="2" fill="#FFFFFF" />
<rect x="20" y="20" width="2" height="2" fill="#FFFFFF" />
<rect x="22" y="20" width="2" height="2" fill="#FFFFFF" />
<rect x="10" y="22" width="2" height="2" fill="#FFFFFF" />
<rect x="20" y="22" width="2" height="2" fill="#FFFFFF" />
<rect x="10" y="24" width="2" height="2" fill="#FFFFFF" />
<rect x="12" y="24" width="2" height="2" fill="#FFFFFF" />
<rect x="14" y="24" width="2" height="2" fill="#FFFFFF" />
<rect x="16" y="24" width="2" height="2" fill="#FFFFFF" />
<rect x="18" y="24" width="2" height="2" fill="#FFFFFF" />
<rect x="20" y="24" width="2" height="2" fill="#FFFFFF" />
<rect x="10" y="28" width="2" height="2" fill="#FFFFFF" />
<rect x="12" y="28" width="2" height="2" fill="#FFFFFF" />
<rect x="14" y="28" width="2" height="2" fill="#FFFFFF" />
<rect x="16" y="28" width="2" height="2" fill="#FFFFFF" />
<rect x="18" y="28" width="2" height="2" fill="#FFFFFF" />
<rect x="20" y="28" width="2" height="2" fill="#FFFFFF" />
</svg>