<svg xmlns="http://www.w3.org/2000/svg" shape-rendering="crispEdges" viewBox="0 0 16 15"><path fill="#FFF" d="M6 0h1v1H6zM7 0h1v1H7zM8 0h1v1H8zM9 0h1v1H9zM4 1h1v1H4zM5 1h1v1H5zM10 1h1v1h-1zM11 1h1v1h-1zM3 2h1v1H3zM4 2h1v1H4zM11 2h1v1h-1zM12 2h1v1h-1zM3 3h1v1H3zM9 3h1v1H9zM12 3h1v1h-1zM2 4h1v1H2zM10 4h1v1h-1zM13 4h1v1h-1zM2 5h1v1H2zM13 5h1v1h-1zM2 6h1v1H2zM13 6h1v1h-1zM2 7h1v1H2zM13 7h1v1h-1zM3 8h1v1H3zM12 8h1v1h-1zM3 9h1v1H3zM4 9h1v1H4zM11 9h1v1h-1zM12 9h1v1h-1zM4 10h1v1H4zM5 10h1v1H5zM10 10h1v1h-1zM11 10h1v1h-1zM5 11h1v1H5zM10 11h1v1h-1zM5 12h1v1H5zM6 12h1v1H6zM7 12h1v1H7zM8 12h1v1H8zM9 12h1v1H9zM10 12h1v1h-1zM5 14h1v1H5zM6 14h1v1H6zM7 14h1v1H7zM8 14h1v1H8zM9 14h1v1H9zM10 14h1v1h-1z"/></svg>