<?xml version="1.0" encoding="UTF-8" ?>
<svg version="1.1" width="39" height="42" viewBox="0 0 39 42" xmlns="http://www.w3.org/2000/svg" shape-rendering="crispEdges">
<rect x="6" y="0" width="3" height="3" fill="#FFFFFF" />
<rect x="9" y="0" width="3" height="3" fill="#FFFFFF" />
<rect x="12" y="0" width="3" height="3" fill="#FFFFFF" />
<rect x="15" y="0" width="3" height="3" fill="#FFFFFF" />
<rect x="18" y="0" width="3" height="3" fill="#FFFFFF" />
<rect x="21" y="0" width="3" height="3" fill="#FFFFFF" />
<rect x="24" y="0" width="3" height="3" fill="#FFFFFF" />
<rect x="27" y="0" width="3" height="3" fill="#FFFFFF" />
<rect x="30" y="0" width="3" height="3" fill="#FFFFFF" />
<rect x="3" y="3" width="3" height="3" fill="#FFFFFF" />
<rect x="6" y="3" width="3" height="3" fill="#FFFFFF" />
<rect x="9" y="3" width="3" height="3" fill="#FFFFFF" />
<rect x="12" y="3" width="3" height="3" fill="#FFFFFF" />
<rect x="15" y="3" width="3" height="3" fill="#FFFFFF" />
<rect x="18" y="3" width="3" height="3" fill="#FFFFFF" />
<rect x="21" y="3" width="3" height="3" fill="#FFFFFF" />
<rect x="24" y="3" width="3" height="3" fill="#FFFFFF" />
<rect x="27" y="3" width="3" height="3" fill="#FFFFFF" />
<rect x="30" y="3" width="3" height="3" fill="#FFFFFF" />
<rect x="33" y="3" width="3" height="3" fill="#FFFFFF" />
<rect x="3" y="6" width="3" height="3" fill="#FFFFFF" />
<rect x="6" y="6" width="3" height="3" fill="#FFFFFF" />
<rect x="30" y="6" width="3" height="3" fill="#FFFFFF" />
<rect x="33" y="6" width="3" height="3" fill="#FFFFFF" />
<rect x="3" y="9" width="3" height="3" fill="#FFFFFF" />
<rect x="6" y="9" width="3" height="3" fill="#FFFFFF" />
<rect x="30" y="9" width="3" height="3" fill="#FFFFFF" />
<rect x="33" y="9" width="3" height="3" fill="#FFFFFF" />
<rect x="3" y="12" width="3" height="3" fill="#FFFFFF" />
<rect x="6" y="12" width="3" height="3" fill="#FFFFFF" />
<rect x="30" y="12" width="3" height="3" fill="#FFFFFF" />
<rect x="33" y="12" width="3" height="3" fill="#FFFFFF" />
<rect x="3" y="15" width="3" height="3" fill="#FFFFFF" />
<rect x="6" y="15" width="3" height="3" fill="#FFFFFF" />
<rect x="30" y="15" width="3" height="3" fill="#FFFFFF" />
<rect x="33" y="15" width="3" height="3" fill="#FFFFFF" />
<rect x="0" y="18" width="3" height="3" fill="#FFFFFF" />
<rect x="3" y="18" width="3" height="3" fill="#FFFFFF" />
<rect x="6" y="18" width="3" height="3" fill="#FFFFFF" />
<rect x="9" y="18" width="3" height="3" fill="#FFFFFF" />
<rect x="12" y="18" width="3" height="3" fill="#FFFFFF" />
<rect x="15" y="18" width="3" height="3" fill="#FFFFFF" />
<rect x="18" y="18" width="3" height="3" fill="#FFFFFF" />
<rect x="21" y="18" width="3" height="3" fill="#FFFFFF" />
<rect x="24" y="18" width="3" height="3" fill="#FFFFFF" />
<rect x="27" y="18" width="3" height="3" fill="#FFFFFF" />
<rect x="30" y="18" width="3" height="3" fill="#FFFFFF" />
<rect x="33" y="18" width="3" height="3" fill="#FFFFFF" />
<rect x="36" y="18" width="3" height="3" fill="#FFFFFF" />
<rect x="0" y="21" width="3" height="3" fill="#FFFFFF" />
<rect x="3" y="21" width="3" height="3" fill="#FFFFFF" />
<rect x="6" y="21" width="3" height="3" fill="#FFFFFF" />
<rect x="9" y="21" width="3" height="3" fill="#FFFFFF" />
<rect x="12" y="21" width="3" height="3" fill="#FFFFFF" />
<rect x="15" y="21" width="3" height="3" fill="#FFFFFF" />
<rect x="18" y="21" width="3" height="3" fill="#FFFFFF" />
<rect x="21" y="21" width="3" height="3" fill="#FFFFFF" />
<rect x="24" y="21" width="3" height="3" fill="#FFFFFF" />
<rect x="27" y="21" width="3" height="3" fill="#FFFFFF" />
<rect x="30" y="21" width="3" height="3" fill="#FFFFFF" />
<rect x="33" y="21" width="3" height="3" fill="#FFFFFF" />
<rect x="36" y="21" width="3" height="3" fill="#FFFFFF" />
<rect x="0" y="24" width="3" height="3" fill="#FFFFFF" />
<rect x="3" y="24" width="3" height="3" fill="#FFFFFF" />
<rect x="6" y="24" width="3" height="3" fill="#FFFFFF" />
<rect x="9" y="24" width="3" height="3" fill="#FFFFFF" />
<rect x="12" y="24" width="3" height="3" fill="#FFFFFF" />
<rect x="24" y="24" width="3" height="3" fill="#FFFFFF" />
<rect x="27" y="24" width="3" height="3" fill="#FFFFFF" />
<rect x="30" y="24" width="3" height="3" fill="#FFFFFF" />
<rect x="33" y="24" width="3" height="3" fill="#FFFFFF" />
<rect x="36" y="24" width="3" height="3" fill="#FFFFFF" />
<rect x="0" y="27" width="3" height="3" fill="#FFFFFF" />
<rect x="3" y="27" width="3" height="3" fill="#FFFFFF" />
<rect x="6" y="27" width="3" height="3" fill="#FFFFFF" />
<rect x="9" y="27" width="3" height="3" fill="#FFFFFF" />
<rect x="12" y="27" width="3" height="3" fill="#FFFFFF" />
<rect x="24" y="27" width="3" height="3" fill="#FFFFFF" />
<rect x="27" y="27" width="3" height="3" fill="#FFFFFF" />
<rect x="30" y="27" width="3" height="3" fill="#FFFFFF" />
<rect x="33" y="27" width="3" height="3" fill="#FFFFFF" />
<rect x="36" y="27" width="3" height="3" fill="#FFFFFF" />
<rect x="0" y="30" width="3" height="3" fill="#FFFFFF" />
<rect x="3" y="30" width="3" height="3" fill="#FFFFFF" />
<rect x="6" y="30" width="3" height="3" fill="#FFFFFF" />
<rect x="9" y="30" width="3" height="3" fill="#FFFFFF" />
<rect x="12" y="30" width="3" height="3" fill="#FFFFFF" />
<rect x="15" y="30" width="3" height="3" fill="#FFFFFF" />
<rect x="21" y="30" width="3" height="3" fill="#FFFFFF" />
<rect x="24" y="30" width="3" height="3" fill="#FFFFFF" />
<rect x="27" y="30" width="3" height="3" fill="#FFFFFF" />
<rect x="30" y="30" width="3" height="3" fill="#FFFFFF" />
<rect x="33" y="30" width="3" height="3" fill="#FFFFFF" />
<rect x="36" y="30" width="3" height="3" fill="#FFFFFF" />
<rect x="0" y="33" width="3" height="3" fill="#FFFFFF" />
<rect x="3" y="33" width="3" height="3" fill="#FFFFFF" />
<rect x="6" y="33" width="3" height="3" fill="#FFFFFF" />
<rect x="9" y="33" width="3" height="3" fill="#FFFFFF" />
<rect x="12" y="33" width="3" height="3" fill="#FFFFFF" />
<rect x="15" y="33" width="3" height="3" fill="#FFFFFF" />
<rect x="21" y="33" width="3" height="3" fill="#FFFFFF" />
<rect x="24" y="33" width="3" height="3" fill="#FFFFFF" />
<rect x="27" y="33" width="3" height="3" fill="#FFFFFF" />
<rect x="30" y="33" width="3" height="3" fill="#FFFFFF" />
<rect x="33" y="33" width="3" height="3" fill="#FFFFFF" />
<rect x="36" y="33" width="3" height="3" fill="#FFFFFF" />
<rect x="0" y="36" width="3" height="3" fill="#FFFFFF" />
<rect x="3" y="36" width="3" height="3" fill="#FFFFFF" />
<rect x="6" y="36" width="3" height="3" fill="#FFFFFF" />
<rect x="9" y="36" width="3" height="3" fill="#FFFFFF" />
<rect x="12" y="36" width="3" height="3" fill="#FFFFFF" />
<rect x="15" y="36" width="3" height="3" fill="#FFFFFF" />
<rect x="18" y="36" width="3" height="3" fill="#FFFFFF" />
<rect x="21" y="36" width="3" height="3" fill="#FFFFFF" />
<rect x="24" y="36" width="3" height="3" fill="#FFFFFF" />
<rect x="27" y="36" width="3" height="3" fill="#FFFFFF" />
<rect x="30" y="36" width="3" height="3" fill="#FFFFFF" />
<rect x="33" y="36" width="3" height="3" fill="#FFFFFF" />
<rect x="36" y="36" width="3" height="3" fill="#FFFFFF" />
<rect x="3" y="39" width="3" height="3" fill="#FFFFFF" />
<rect x="6" y="39" width="3" height="3" fill="#FFFFFF" />
<rect x="9" y="39" width="3" height="3" fill="#FFFFFF" />
<rect x="12" y="39" width="3" height="3" fill="#FFFFFF" />
<rect x="15" y="39" width="3" height="3" fill="#FFFFFF" />
<rect x="18" y="39" width="3" height="3" fill="#FFFFFF" />
<rect x="21" y="39" width="3" height="3" fill="#FFFFFF" />
<rect x="24" y="39" width="3" height="3" fill="#FFFFFF" />
<rect x="27" y="39" width="3" height="3" fill="#FFFFFF" />
<rect x="30" y="39" width="3" height="3" fill="#FFFFFF" />
<rect x="33" y="39" width="3" height="3" fill="#FFFFFF" />
</svg>