<?xml version="1.0" encoding="UTF-8" ?>
<svg version="1.1" width="32" height="32" viewBox="0 0 32 32" xmlns="http://www.w3.org/2000/svg" shape-rendering="crispEdges">
<rect x="8" y="4" width="2" height="2" fill="#FFFFFF" />
<rect x="10" y="4" width="2" height="2" fill="#FFFFFF" />
<rect x="20" y="4" width="2" height="2" fill="#FFFFFF" />
<rect x="22" y="4" width="2" height="2" fill="#FFFFFF" />
<rect x="8" y="6" width="2" height="2" fill="#FFFFFF" />
<rect x="10" y="6" width="2" height="2" fill="#FFFFFF" />
<rect x="20" y="6" width="2" height="2" fill="#FFFFFF" />
<rect x="22" y="6" width="2" height="2" fill="#FFFFFF" />
<rect x="8" y="8" width="2" height="2" fill="#FFFFFF" />
<rect x="10" y="8" width="2" height="2" fill="#FFFFFF" />
<rect x="20" y="8" width="2" height="2" fill="#FFFFFF" />
<rect x="22" y="8" width="2" height="2" fill="#FFFFFF" />
<rect x="8" y="10" width="2" height="2" fill="#FFFFFF" />
<rect x="10" y="10" width="2" height="2" fill="#FFFFFF" />
<rect x="20" y="10" width="2" height="2" fill="#FFFFFF" />
<rect x="22" y="10" width="2" height="2" fill="#FFFFFF" />
<rect x="8" y="12" width="2" height="2" fill="#FFFFFF" />
<rect x="10" y="12" width="2" height="2" fill="#FFFFFF" />
<rect x="20" y="12" width="2" height="2" fill="#FFFFFF" />
<rect x="22" y="12" width="2" height="2" fill="#FFFFFF" />
<rect x="8" y="14" width="2" height="2" fill="#FFFFFF" />
<rect x="10" y="14" width="2" height="2" fill="#FFFFFF" />
<rect x="20" y="14" width="2" height="2" fill="#FFFFFF" />
<rect x="22" y="14" width="2" height="2" fill="#FFFFFF" />
<rect x="8" y="16" width="2" height="2" fill="#FFFFFF" />
<rect x="10" y="16" width="2" height="2" fill="#FFFFFF" />
<rect x="20" y="16" width="2" height="2" fill="#FFFFFF" />
<rect x="22" y="16" width="2" height="2" fill="#FFFFFF" />
<rect x="8" y="18" width="2" height="2" fill="#FFFFFF" />
<rect x="10" y="18" width="2" height="2" fill="#FFFFFF" />
<rect x="20" y="18" width="2" height="2" fill="#FFFFFF" />
<rect x="22" y="18" width="2" height="2" fill="#FFFFFF" />
<rect x="8" y="20" width="2" height="2" fill="#FFFFFF" />
<rect x="10" y="20" width="2" height="2" fill="#FFFFFF" />
<rect x="20" y="20" width="2" height="2" fill="#FFFFFF" />
<rect x="22" y="20" width="2" height="2" fill="#FFFFFF" />
<rect x="8" y="22" width="2" height="2" fill="#FFFFFF" />
<rect x="10" y="22" width="2" height="2" fill="#FFFFFF" />
<rect x="20" y="22" width="2" height="2" fill="#FFFFFF" />
<rect x="22" y="22" width="2" height="2" fill="#FFFFFF" />
<rect x="8" y="24" width="2" height="2" fill="#FFFFFF" />
<rect x="10" y="24" width="2" height="2" fill="#FFFFFF" />
<rect x="20" y="24" width="2" height="2" fill="#FFFFFF" />
<rect x="22" y="24" width="2" height="2" fill="#FFFFFF" />
<rect x="8" y="26" width="2" height="2" fill="#FFFFFF" />
<rect x="10" y="26" width="2" height="2" fill="#FFFFFF" />
<rect x="20" y="26" width="2" height="2" fill="#FFFFFF" />
<rect x="22" y="26" width="2" height="2" fill="#FFFFFF" />
</svg>