<svg xmlns="http://www.w3.org/2000/svg" shape-rendering="crispEdges" viewBox="0 0 16 16"><path fill="#FFF" d="M4 2h1v1H4zM5 2h1v1H5zM10 2h1v1h-1zM11 2h1v1h-1zM4 3h1v1H4zM5 3h1v1H5zM10 3h1v1h-1zM11 3h1v1h-1zM4 4h1v1H4zM5 4h1v1H5zM10 4h1v1h-1zM11 4h1v1h-1zM4 5h1v1H4zM5 5h1v1H5zM10 5h1v1h-1zM11 5h1v1h-1zM4 6h1v1H4zM5 6h1v1H5zM10 6h1v1h-1zM11 6h1v1h-1zM4 7h1v1H4zM5 7h1v1H5zM10 7h1v1h-1zM11 7h1v1h-1zM4 8h1v1H4zM5 8h1v1H5zM10 8h1v1h-1zM11 8h1v1h-1zM4 9h1v1H4zM5 9h1v1H5zM10 9h1v1h-1zM11 9h1v1h-1zM4 10h1v1H4zM5 10h1v1H5zM10 10h1v1h-1zM11 10h1v1h-1zM4 11h1v1H4zM5 11h1v1H5zM10 11h1v1h-1zM11 11h1v1h-1zM4 12h1v1H4zM5 12h1v1H5zM10 12h1v1h-1zM11 12h1v1h-1zM4 13h1v1H4zM5 13h1v1H5zM10 13h1v1h-1zM11 13h1v1h-1z"/></svg>