<svg xmlns="http://www.w3.org/2000/svg" shape-rendering="crispEdges" viewBox="0 0 16 16"><path d="M7 0h1v1H7zM6 1h1v1H6z"/><path fill="#EE9C27" d="M7 1h1v1H7z"/><path d="M8 1h1v1H8zM5 2h1v1H5z"/><path fill="#EEC027" d="M6 2h1v1H6zM7 2h1v1H7z"/><path fill="#EE9C27" d="M8 2h1v1H8z"/><path d="M9 2h1v1H9zM5 3h1v1H5z"/><path fill="#FFCD59" d="M6 3h1v1H6z"/><path fill="#EEC027" d="M7 3h1v1H7z"/><path fill="#EE9C27" d="M8 3h1v1H8z"/><path d="M9 3h1v1H9zM1 4h1v1H1zM2 4h1v1H2zM3 4h1v1H3zM4 4h1v1H4z"/><path fill="#FFCD59" d="M5 4h1v1H5z"/><path fill="#EEC027" d="M6 4h1v1H6zM7 4h1v1H7zM8 4h1v1H8z"/><path fill="#EE9C27" d="M9 4h1v1H9z"/><path d="M10 4h1v1h-1zM11 4h1v1h-1zM12 4h1v1h-1zM13 4h1v1h-1zM0 5h1v1H0z"/><path fill="#EEC027" d="M1 5h1v1H1zM2 5h1v1H2zM3 5h1v1H3z"/><path fill="#FFCD59" d="M4 5h1v1H4z"/><path fill="#EEC027" d="M5 5h1v1H5zM6 5h1v1H6zM7 5h1v1H7zM8 5h1v1H8z"/><path fill="#EEB927" d="M9 5h1v1H9z"/><path fill="#EE9C27" d="M10 5h1v1h-1zM11 5h1v1h-1zM12 5h1v1h-1zM13 5h1v1h-1z"/><path d="M14 5h1v1h-1zM1 6h1v1H1z"/><path fill="#EEC027" d="M2 6h1v1H2zM3 6h1v1H3zM4 6h1v1H4zM5 6h1v1H5zM6 6h1v1H6zM7 6h1v1H7z"/><path fill="#EEB927" d="M8 6h1v1H8zM9 6h1v1H9zM10 6h1v1h-1zM11 6h1v1h-1z"/><path fill="#EE9C27" d="M12 6h1v1h-1z"/><path d="M13 6h1v1h-1zM2 7h1v1H2z"/><path fill="#EE9C27" d="M3 7h1v1H3z"/><path fill="#EEC027" d="M4 7h1v1H4zM5 7h1v1H5zM6 7h1v1H6z"/><path fill="#EEB927" d="M7 7h1v1H7zM8 7h1v1H8zM9 7h1v1H9zM10 7h1v1h-1z"/><path fill="#EE9C27" d="M11 7h1v1h-1z"/><path d="M12 7h1v1h-1zM3 8h1v1H3z"/><path fill="#EE9C27" d="M4 8h1v1H4z"/><path fill="#EEC027" d="M5 8h1v1H5z"/><path fill="#EEB927" d="M6 8h1v1H6zM7 8h1v1H7zM8 8h1v1H8zM9 8h1v1H9z"/><path fill="#EE9C27" d="M10 8h1v1h-1z"/><path d="M11 8h1v1h-1zM3 9h1v1H3z"/><path fill="#EEC027" d="M4 9h1v1H4z"/><path fill="#EEB927" d="M5 9h1v1H5zM6 9h1v1H6zM7 9h1v1H7zM8 9h1v1H8zM9 9h1v1H9z"/><path fill="#EE9C27" d="M10 9h1v1h-1z"/><path d="M11 9h1v1h-1zM2 10h1v1H2z"/><path fill="#EEC027" d="M3 10h1v1H3z"/><path fill="#EEB927" d="M4 10h1v1H4zM5 10h1v1H5z"/><path fill="#EE9C27" d="M6 10h1v1H6zM7 10h1v1H7zM8 10h1v1H8z"/><path fill="#EEB927" d="M9 10h1v1H9zM10 10h1v1h-1z"/><path fill="#EE9C27" d="M11 10h1v1h-1z"/><path d="M12 10h1v1h-1zM2 11h1v1H2z"/><path fill="#EEB927" d="M3 11h1v1H3zM4 11h1v1H4z"/><path fill="#EE9C27" d="M5 11h1v1H5z"/><path d="M6 11h1v1H6zM7 11h1v1H7zM8 11h1v1H8z"/><path fill="#EE9C27" d="M9 11h1v1H9z"/><path fill="#EEB927" d="M10 11h1v1h-1z"/><path fill="#EE9C27" d="M11 11h1v1h-1z"/><path d="M12 11h1v1h-1zM2 12h1v1H2z"/><path fill="#EEB927" d="M3 12h1v1H3z"/><path fill="#EE9C27" d="M4 12h1v1H4z"/><path d="M5 12h1v1H5zM9 12h1v1H9z"/><path fill="#EE9C27" d="M10 12h1v1h-1zM11 12h1v1h-1z"/><path d="M12 12h1v1h-1zM2 13h1v1H2z"/><path fill="#EE9C27" d="M3 13h1v1H3z"/><path d="M4 13h1v1H4zM10 13h1v1h-1z"/><path fill="#EE9C27" d="M11 13h1v1h-1z"/><path d="M12 13h1v1h-1zM2 14h1v1H2zM3 14h1v1H3zM11 14h1v1h-1zM12 14h1v1h-1z"/></svg>